G04 #@! TF.GenerationSoftware,KiCad,Pcbnew,(2017-01-24 revision 0b6147e)-makepkg*
G04 #@! TF.CreationDate,2017-10-03T08:04:23-07:00*
G04 #@! TF.ProjectId,OLED_1.5_128X128_breakout,4F4C45445F312E355F31323858313238,rev?*
G04 #@! TF.FileFunction,Legend,Bot*
G04 #@! TF.FilePolarity,Positive*
%FSLAX46Y46*%
G04 Gerber Fmt 4.6, Leading zero omitted, Abs format (unit mm)*
G04 Created by KiCad (PCBNEW (2017-01-24 revision 0b6147e)-makepkg) date 10/03/17 08:04:23*
%MOMM*%
%LPD*%
G01*
G04 APERTURE LIST*
%ADD10C,0.100000*%
%ADD11C,0.300000*%
%ADD12C,0.200000*%
%ADD13C,0.150000*%
%ADD14R,2.127200X2.432000*%
%ADD15O,2.127200X2.432000*%
%ADD16C,3.100000*%
G04 APERTURE END LIST*
D10*
D11*
X92528571Y-55021428D02*
X92528571Y-54164285D01*
X92528571Y-54592857D02*
X91028571Y-54592857D01*
X91242857Y-54449999D01*
X91385714Y-54307142D01*
X91457142Y-54164285D01*
X92385714Y-55664285D02*
X92457142Y-55735714D01*
X92528571Y-55664285D01*
X92457142Y-55592857D01*
X92385714Y-55664285D01*
X92528571Y-55664285D01*
X91028571Y-57092857D02*
X91028571Y-56378571D01*
X91742857Y-56307142D01*
X91671428Y-56378571D01*
X91600000Y-56521428D01*
X91600000Y-56878571D01*
X91671428Y-57021428D01*
X91742857Y-57092857D01*
X91885714Y-57164285D01*
X92242857Y-57164285D01*
X92385714Y-57092857D01*
X92457142Y-57021428D01*
X92528571Y-56878571D01*
X92528571Y-56521428D01*
X92457142Y-56378571D01*
X92385714Y-56307142D01*
X91028571Y-57735714D02*
X91314285Y-57735714D01*
X91028571Y-58307142D02*
X91314285Y-58307142D01*
X92385714Y-59807142D02*
X92457142Y-59735714D01*
X92528571Y-59521428D01*
X92528571Y-59378571D01*
X92457142Y-59164285D01*
X92314285Y-59021428D01*
X92171428Y-58949999D01*
X91885714Y-58878571D01*
X91671428Y-58878571D01*
X91385714Y-58949999D01*
X91242857Y-59021428D01*
X91100000Y-59164285D01*
X91028571Y-59378571D01*
X91028571Y-59521428D01*
X91100000Y-59735714D01*
X91171428Y-59807142D01*
X92528571Y-60664285D02*
X92457142Y-60521428D01*
X92385714Y-60449999D01*
X92242857Y-60378571D01*
X91814285Y-60378571D01*
X91671428Y-60449999D01*
X91600000Y-60521428D01*
X91528571Y-60664285D01*
X91528571Y-60878571D01*
X91600000Y-61021428D01*
X91671428Y-61092857D01*
X91814285Y-61164285D01*
X92242857Y-61164285D01*
X92385714Y-61092857D01*
X92457142Y-61021428D01*
X92528571Y-60878571D01*
X92528571Y-60664285D01*
X92528571Y-62021428D02*
X92457142Y-61878571D01*
X92314285Y-61807142D01*
X91028571Y-61807142D01*
X92528571Y-62807142D02*
X92457142Y-62664285D01*
X92385714Y-62592857D01*
X92242857Y-62521428D01*
X91814285Y-62521428D01*
X91671428Y-62592857D01*
X91600000Y-62664285D01*
X91528571Y-62807142D01*
X91528571Y-63021428D01*
X91600000Y-63164285D01*
X91671428Y-63235714D01*
X91814285Y-63307142D01*
X92242857Y-63307142D01*
X92385714Y-63235714D01*
X92457142Y-63164285D01*
X92528571Y-63021428D01*
X92528571Y-62807142D01*
X92528571Y-63950000D02*
X91528571Y-63950000D01*
X91814285Y-63950000D02*
X91671428Y-64021428D01*
X91600000Y-64092857D01*
X91528571Y-64235714D01*
X91528571Y-64378571D01*
X91028571Y-66307142D02*
X91028571Y-66592857D01*
X91100000Y-66735714D01*
X91242857Y-66878571D01*
X91528571Y-66949999D01*
X92028571Y-66949999D01*
X92314285Y-66878571D01*
X92457142Y-66735714D01*
X92528571Y-66592857D01*
X92528571Y-66307142D01*
X92457142Y-66164285D01*
X92314285Y-66021428D01*
X92028571Y-65949999D01*
X91528571Y-65949999D01*
X91242857Y-66021428D01*
X91100000Y-66164285D01*
X91028571Y-66307142D01*
X92528571Y-68307142D02*
X92528571Y-67592857D01*
X91028571Y-67592857D01*
X91742857Y-68807142D02*
X91742857Y-69307142D01*
X92528571Y-69521428D02*
X92528571Y-68807142D01*
X91028571Y-68807142D01*
X91028571Y-69521428D01*
X92528571Y-70164285D02*
X91028571Y-70164285D01*
X91028571Y-70521428D01*
X91100000Y-70735714D01*
X91242857Y-70878571D01*
X91385714Y-70949999D01*
X91671428Y-71021428D01*
X91885714Y-71021428D01*
X92171428Y-70949999D01*
X92314285Y-70878571D01*
X92457142Y-70735714D01*
X92528571Y-70521428D01*
X92528571Y-70164285D01*
X92457142Y-72735714D02*
X92528571Y-72949999D01*
X92528571Y-73307142D01*
X92457142Y-73449999D01*
X92385714Y-73521428D01*
X92242857Y-73592857D01*
X92100000Y-73592857D01*
X91957142Y-73521428D01*
X91885714Y-73449999D01*
X91814285Y-73307142D01*
X91742857Y-73021428D01*
X91671428Y-72878571D01*
X91600000Y-72807142D01*
X91457142Y-72735714D01*
X91314285Y-72735714D01*
X91171428Y-72807142D01*
X91100000Y-72878571D01*
X91028571Y-73021428D01*
X91028571Y-73378571D01*
X91100000Y-73592857D01*
X92457142Y-74164285D02*
X92528571Y-74378571D01*
X92528571Y-74735714D01*
X92457142Y-74878571D01*
X92385714Y-74949999D01*
X92242857Y-75021428D01*
X92100000Y-75021428D01*
X91957142Y-74949999D01*
X91885714Y-74878571D01*
X91814285Y-74735714D01*
X91742857Y-74449999D01*
X91671428Y-74307142D01*
X91600000Y-74235714D01*
X91457142Y-74164285D01*
X91314285Y-74164285D01*
X91171428Y-74235714D01*
X91100000Y-74307142D01*
X91028571Y-74449999D01*
X91028571Y-74807142D01*
X91100000Y-75021428D01*
X92528571Y-75664285D02*
X91028571Y-75664285D01*
X91028571Y-76021428D01*
X91100000Y-76235714D01*
X91242857Y-76378571D01*
X91385714Y-76449999D01*
X91671428Y-76521428D01*
X91885714Y-76521428D01*
X92171428Y-76449999D01*
X92314285Y-76378571D01*
X92457142Y-76235714D01*
X92528571Y-76021428D01*
X92528571Y-75664285D01*
X92528571Y-77949999D02*
X92528571Y-77092857D01*
X92528571Y-77521428D02*
X91028571Y-77521428D01*
X91242857Y-77378571D01*
X91385714Y-77235714D01*
X91457142Y-77092857D01*
X91028571Y-78449999D02*
X91028571Y-79378571D01*
X91600000Y-78878571D01*
X91600000Y-79092857D01*
X91671428Y-79235714D01*
X91742857Y-79307142D01*
X91885714Y-79378571D01*
X92242857Y-79378571D01*
X92385714Y-79307142D01*
X92457142Y-79235714D01*
X92528571Y-79092857D01*
X92528571Y-78664285D01*
X92457142Y-78521428D01*
X92385714Y-78449999D01*
X91028571Y-80735714D02*
X91028571Y-80021428D01*
X91742857Y-79949999D01*
X91671428Y-80021428D01*
X91600000Y-80164285D01*
X91600000Y-80521428D01*
X91671428Y-80664285D01*
X91742857Y-80735714D01*
X91885714Y-80807142D01*
X92242857Y-80807142D01*
X92385714Y-80735714D01*
X92457142Y-80664285D01*
X92528571Y-80521428D01*
X92528571Y-80164285D01*
X92457142Y-80021428D01*
X92385714Y-79949999D01*
X92528571Y-82235714D02*
X92528571Y-81378571D01*
X92528571Y-81807142D02*
X91028571Y-81807142D01*
X91242857Y-81664285D01*
X91385714Y-81521428D01*
X91457142Y-81378571D01*
X52500000Y-86162142D02*
X52571428Y-86305000D01*
X52571428Y-86519285D01*
X52500000Y-86733571D01*
X52357142Y-86876428D01*
X52214285Y-86947857D01*
X51928571Y-87019285D01*
X51714285Y-87019285D01*
X51428571Y-86947857D01*
X51285714Y-86876428D01*
X51142857Y-86733571D01*
X51071428Y-86519285D01*
X51071428Y-86376428D01*
X51142857Y-86162142D01*
X51214285Y-86090714D01*
X51714285Y-86090714D01*
X51714285Y-86376428D01*
X51071428Y-85447857D02*
X52571428Y-85447857D01*
X51071428Y-84590714D01*
X52571428Y-84590714D01*
X51071428Y-83876428D02*
X52571428Y-83876428D01*
X52571428Y-83519285D01*
X52500000Y-83305000D01*
X52357142Y-83162142D01*
X52214285Y-83090714D01*
X51928571Y-83019285D01*
X51714285Y-83019285D01*
X51428571Y-83090714D01*
X51285714Y-83162142D01*
X51142857Y-83305000D01*
X51071428Y-83519285D01*
X51071428Y-83876428D01*
X55321428Y-87090714D02*
X55321428Y-86162142D01*
X54750000Y-86662142D01*
X54750000Y-86447857D01*
X54678571Y-86305000D01*
X54607142Y-86233571D01*
X54464285Y-86162142D01*
X54107142Y-86162142D01*
X53964285Y-86233571D01*
X53892857Y-86305000D01*
X53821428Y-86447857D01*
X53821428Y-86876428D01*
X53892857Y-87019285D01*
X53964285Y-87090714D01*
X55321428Y-85733571D02*
X53821428Y-85233571D01*
X55321428Y-84733571D01*
X55321428Y-84376428D02*
X55321428Y-83447857D01*
X54750000Y-83947857D01*
X54750000Y-83733571D01*
X54678571Y-83590714D01*
X54607142Y-83519285D01*
X54464285Y-83447857D01*
X54107142Y-83447857D01*
X53964285Y-83519285D01*
X53892857Y-83590714D01*
X53821428Y-83733571D01*
X53821428Y-84162142D01*
X53892857Y-84305000D01*
X53964285Y-84376428D01*
X91721428Y-86190714D02*
X92435714Y-86690714D01*
X91721428Y-87047857D02*
X93221428Y-87047857D01*
X93221428Y-86476428D01*
X93150000Y-86333571D01*
X93078571Y-86262142D01*
X92935714Y-86190714D01*
X92721428Y-86190714D01*
X92578571Y-86262142D01*
X92507142Y-86333571D01*
X92435714Y-86476428D01*
X92435714Y-87047857D01*
X92507142Y-85547857D02*
X92507142Y-85047857D01*
X91721428Y-84833571D02*
X91721428Y-85547857D01*
X93221428Y-85547857D01*
X93221428Y-84833571D01*
X91792857Y-84262142D02*
X91721428Y-84047857D01*
X91721428Y-83690714D01*
X91792857Y-83547857D01*
X91864285Y-83476428D01*
X92007142Y-83405000D01*
X92150000Y-83405000D01*
X92292857Y-83476428D01*
X92364285Y-83547857D01*
X92435714Y-83690714D01*
X92507142Y-83976428D01*
X92578571Y-84119285D01*
X92650000Y-84190714D01*
X92792857Y-84262142D01*
X92935714Y-84262142D01*
X93078571Y-84190714D01*
X93150000Y-84119285D01*
X93221428Y-83976428D01*
X93221428Y-83619285D01*
X93150000Y-83405000D01*
X89121428Y-87047857D02*
X90621428Y-87047857D01*
X90621428Y-86690714D01*
X90550000Y-86476428D01*
X90407142Y-86333571D01*
X90264285Y-86262142D01*
X89978571Y-86190714D01*
X89764285Y-86190714D01*
X89478571Y-86262142D01*
X89335714Y-86333571D01*
X89192857Y-86476428D01*
X89121428Y-86690714D01*
X89121428Y-87047857D01*
X90692857Y-84476428D02*
X88764285Y-85762142D01*
X89264285Y-83119285D02*
X89192857Y-83190714D01*
X89121428Y-83405000D01*
X89121428Y-83547857D01*
X89192857Y-83762142D01*
X89335714Y-83905000D01*
X89478571Y-83976428D01*
X89764285Y-84047857D01*
X89978571Y-84047857D01*
X90264285Y-83976428D01*
X90407142Y-83905000D01*
X90550000Y-83762142D01*
X90621428Y-83547857D01*
X90621428Y-83405000D01*
X90550000Y-83190714D01*
X90478571Y-83119285D01*
X86764285Y-86090714D02*
X86692857Y-86162142D01*
X86621428Y-86376428D01*
X86621428Y-86519285D01*
X86692857Y-86733571D01*
X86835714Y-86876428D01*
X86978571Y-86947857D01*
X87264285Y-87019285D01*
X87478571Y-87019285D01*
X87764285Y-86947857D01*
X87907142Y-86876428D01*
X88050000Y-86733571D01*
X88121428Y-86519285D01*
X88121428Y-86376428D01*
X88050000Y-86162142D01*
X87978571Y-86090714D01*
X86692857Y-85519285D02*
X86621428Y-85305000D01*
X86621428Y-84947857D01*
X86692857Y-84805000D01*
X86764285Y-84733571D01*
X86907142Y-84662142D01*
X87050000Y-84662142D01*
X87192857Y-84733571D01*
X87264285Y-84805000D01*
X87335714Y-84947857D01*
X87407142Y-85233571D01*
X87478571Y-85376428D01*
X87550000Y-85447857D01*
X87692857Y-85519285D01*
X87835714Y-85519285D01*
X87978571Y-85447857D01*
X88050000Y-85376428D01*
X88121428Y-85233571D01*
X88121428Y-84876428D01*
X88050000Y-84662142D01*
X84807142Y-86547857D02*
X84735714Y-86333571D01*
X84664285Y-86262142D01*
X84521428Y-86190714D01*
X84307142Y-86190714D01*
X84164285Y-86262142D01*
X84092857Y-86333571D01*
X84021428Y-86476428D01*
X84021428Y-87047857D01*
X85521428Y-87047857D01*
X85521428Y-86547857D01*
X85450000Y-86405000D01*
X85378571Y-86333571D01*
X85235714Y-86262142D01*
X85092857Y-86262142D01*
X84950000Y-86333571D01*
X84878571Y-86405000D01*
X84807142Y-86547857D01*
X84807142Y-87047857D01*
X84092857Y-85619285D02*
X84021428Y-85405000D01*
X84021428Y-85047857D01*
X84092857Y-84905000D01*
X84164285Y-84833571D01*
X84307142Y-84762142D01*
X84450000Y-84762142D01*
X84592857Y-84833571D01*
X84664285Y-84905000D01*
X84735714Y-85047857D01*
X84807142Y-85333571D01*
X84878571Y-85476428D01*
X84950000Y-85547857D01*
X85092857Y-85619285D01*
X85235714Y-85619285D01*
X85378571Y-85547857D01*
X85450000Y-85476428D01*
X85521428Y-85333571D01*
X85521428Y-84976428D01*
X85450000Y-84762142D01*
X84021428Y-83333571D02*
X84021428Y-84190714D01*
X84021428Y-83762142D02*
X85521428Y-83762142D01*
X85307142Y-83905000D01*
X85164285Y-84047857D01*
X85092857Y-84190714D01*
X82307142Y-86547857D02*
X82235714Y-86333571D01*
X82164285Y-86262142D01*
X82021428Y-86190714D01*
X81807142Y-86190714D01*
X81664285Y-86262142D01*
X81592857Y-86333571D01*
X81521428Y-86476428D01*
X81521428Y-87047857D01*
X83021428Y-87047857D01*
X83021428Y-86547857D01*
X82950000Y-86405000D01*
X82878571Y-86333571D01*
X82735714Y-86262142D01*
X82592857Y-86262142D01*
X82450000Y-86333571D01*
X82378571Y-86405000D01*
X82307142Y-86547857D01*
X82307142Y-87047857D01*
X81592857Y-85619285D02*
X81521428Y-85405000D01*
X81521428Y-85047857D01*
X81592857Y-84905000D01*
X81664285Y-84833571D01*
X81807142Y-84762142D01*
X81950000Y-84762142D01*
X82092857Y-84833571D01*
X82164285Y-84905000D01*
X82235714Y-85047857D01*
X82307142Y-85333571D01*
X82378571Y-85476428D01*
X82450000Y-85547857D01*
X82592857Y-85619285D01*
X82735714Y-85619285D01*
X82878571Y-85547857D01*
X82950000Y-85476428D01*
X83021428Y-85333571D01*
X83021428Y-84976428D01*
X82950000Y-84762142D01*
X83021428Y-83833571D02*
X83021428Y-83690714D01*
X82950000Y-83547857D01*
X82878571Y-83476428D01*
X82735714Y-83405000D01*
X82450000Y-83333571D01*
X82092857Y-83333571D01*
X81807142Y-83405000D01*
X81664285Y-83476428D01*
X81592857Y-83547857D01*
X81521428Y-83690714D01*
X81521428Y-83833571D01*
X81592857Y-83976428D01*
X81664285Y-84047857D01*
X81807142Y-84119285D01*
X82092857Y-84190714D01*
X82450000Y-84190714D01*
X82735714Y-84119285D01*
X82878571Y-84047857D01*
X82950000Y-83976428D01*
X83021428Y-83833571D01*
X79021428Y-86190714D02*
X79735714Y-86690714D01*
X79021428Y-87047857D02*
X80521428Y-87047857D01*
X80521428Y-86476428D01*
X80450000Y-86333571D01*
X80378571Y-86262142D01*
X80235714Y-86190714D01*
X80021428Y-86190714D01*
X79878571Y-86262142D01*
X79807142Y-86333571D01*
X79735714Y-86476428D01*
X79735714Y-87047857D01*
X80592857Y-84476428D02*
X78664285Y-85762142D01*
X80521428Y-84119285D02*
X79021428Y-83762142D01*
X80092857Y-83476428D01*
X79021428Y-83190714D01*
X80521428Y-82833571D01*
X76421428Y-86190714D02*
X77135714Y-86690714D01*
X76421428Y-87047857D02*
X77921428Y-87047857D01*
X77921428Y-86476428D01*
X77850000Y-86333571D01*
X77778571Y-86262142D01*
X77635714Y-86190714D01*
X77421428Y-86190714D01*
X77278571Y-86262142D01*
X77207142Y-86333571D01*
X77135714Y-86476428D01*
X77135714Y-87047857D01*
X76421428Y-85547857D02*
X77921428Y-85547857D01*
X77921428Y-85190714D01*
X77850000Y-84976428D01*
X77707142Y-84833571D01*
X77564285Y-84762142D01*
X77278571Y-84690714D01*
X77064285Y-84690714D01*
X76778571Y-84762142D01*
X76635714Y-84833571D01*
X76492857Y-84976428D01*
X76421428Y-85190714D01*
X76421428Y-85547857D01*
X56091428Y-87067857D02*
X57591428Y-87067857D01*
X57591428Y-86710714D01*
X57520000Y-86496428D01*
X57377142Y-86353571D01*
X57234285Y-86282142D01*
X56948571Y-86210714D01*
X56734285Y-86210714D01*
X56448571Y-86282142D01*
X56305714Y-86353571D01*
X56162857Y-86496428D01*
X56091428Y-86710714D01*
X56091428Y-87067857D01*
X57591428Y-85710714D02*
X57591428Y-84710714D01*
X56091428Y-85353571D01*
X58721428Y-87047857D02*
X60221428Y-87047857D01*
X60221428Y-86690714D01*
X60150000Y-86476428D01*
X60007142Y-86333571D01*
X59864285Y-86262142D01*
X59578571Y-86190714D01*
X59364285Y-86190714D01*
X59078571Y-86262142D01*
X58935714Y-86333571D01*
X58792857Y-86476428D01*
X58721428Y-86690714D01*
X58721428Y-87047857D01*
X60221428Y-84905000D02*
X60221428Y-85190714D01*
X60150000Y-85333571D01*
X60078571Y-85405000D01*
X59864285Y-85547857D01*
X59578571Y-85619285D01*
X59007142Y-85619285D01*
X58864285Y-85547857D01*
X58792857Y-85476428D01*
X58721428Y-85333571D01*
X58721428Y-85047857D01*
X58792857Y-84905000D01*
X58864285Y-84833571D01*
X59007142Y-84762142D01*
X59364285Y-84762142D01*
X59507142Y-84833571D01*
X59578571Y-84905000D01*
X59650000Y-85047857D01*
X59650000Y-85333571D01*
X59578571Y-85476428D01*
X59507142Y-85547857D01*
X59364285Y-85619285D01*
X61221428Y-87047857D02*
X62721428Y-87047857D01*
X62721428Y-86690714D01*
X62650000Y-86476428D01*
X62507142Y-86333571D01*
X62364285Y-86262142D01*
X62078571Y-86190714D01*
X61864285Y-86190714D01*
X61578571Y-86262142D01*
X61435714Y-86333571D01*
X61292857Y-86476428D01*
X61221428Y-86690714D01*
X61221428Y-87047857D01*
X62721428Y-84833571D02*
X62721428Y-85547857D01*
X62007142Y-85619285D01*
X62078571Y-85547857D01*
X62150000Y-85405000D01*
X62150000Y-85047857D01*
X62078571Y-84905000D01*
X62007142Y-84833571D01*
X61864285Y-84762142D01*
X61507142Y-84762142D01*
X61364285Y-84833571D01*
X61292857Y-84905000D01*
X61221428Y-85047857D01*
X61221428Y-85405000D01*
X61292857Y-85547857D01*
X61364285Y-85619285D01*
X63721428Y-87047857D02*
X65221428Y-87047857D01*
X65221428Y-86690714D01*
X65150000Y-86476428D01*
X65007142Y-86333571D01*
X64864285Y-86262142D01*
X64578571Y-86190714D01*
X64364285Y-86190714D01*
X64078571Y-86262142D01*
X63935714Y-86333571D01*
X63792857Y-86476428D01*
X63721428Y-86690714D01*
X63721428Y-87047857D01*
X64721428Y-84905000D02*
X63721428Y-84905000D01*
X65292857Y-85262142D02*
X64221428Y-85619285D01*
X64221428Y-84690714D01*
X66321428Y-87047857D02*
X67821428Y-87047857D01*
X67821428Y-86690714D01*
X67750000Y-86476428D01*
X67607142Y-86333571D01*
X67464285Y-86262142D01*
X67178571Y-86190714D01*
X66964285Y-86190714D01*
X66678571Y-86262142D01*
X66535714Y-86333571D01*
X66392857Y-86476428D01*
X66321428Y-86690714D01*
X66321428Y-87047857D01*
X67821428Y-85690714D02*
X67821428Y-84762142D01*
X67250000Y-85262142D01*
X67250000Y-85047857D01*
X67178571Y-84905000D01*
X67107142Y-84833571D01*
X66964285Y-84762142D01*
X66607142Y-84762142D01*
X66464285Y-84833571D01*
X66392857Y-84905000D01*
X66321428Y-85047857D01*
X66321428Y-85476428D01*
X66392857Y-85619285D01*
X66464285Y-85690714D01*
X68821428Y-87047857D02*
X70321428Y-87047857D01*
X70321428Y-86690714D01*
X70250000Y-86476428D01*
X70107142Y-86333571D01*
X69964285Y-86262142D01*
X69678571Y-86190714D01*
X69464285Y-86190714D01*
X69178571Y-86262142D01*
X69035714Y-86333571D01*
X68892857Y-86476428D01*
X68821428Y-86690714D01*
X68821428Y-87047857D01*
X70178571Y-85619285D02*
X70250000Y-85547857D01*
X70321428Y-85405000D01*
X70321428Y-85047857D01*
X70250000Y-84905000D01*
X70178571Y-84833571D01*
X70035714Y-84762142D01*
X69892857Y-84762142D01*
X69678571Y-84833571D01*
X68821428Y-85690714D01*
X68821428Y-84762142D01*
X71321428Y-87047857D02*
X72821428Y-87047857D01*
X72821428Y-86690714D01*
X72750000Y-86476428D01*
X72607142Y-86333571D01*
X72464285Y-86262142D01*
X72178571Y-86190714D01*
X71964285Y-86190714D01*
X71678571Y-86262142D01*
X71535714Y-86333571D01*
X71392857Y-86476428D01*
X71321428Y-86690714D01*
X71321428Y-87047857D01*
X71321428Y-84762142D02*
X71321428Y-85619285D01*
X71321428Y-85190714D02*
X72821428Y-85190714D01*
X72607142Y-85333571D01*
X72464285Y-85476428D01*
X72392857Y-85619285D01*
X73921428Y-87047857D02*
X75421428Y-87047857D01*
X75421428Y-86690714D01*
X75350000Y-86476428D01*
X75207142Y-86333571D01*
X75064285Y-86262142D01*
X74778571Y-86190714D01*
X74564285Y-86190714D01*
X74278571Y-86262142D01*
X74135714Y-86333571D01*
X73992857Y-86476428D01*
X73921428Y-86690714D01*
X73921428Y-87047857D01*
X75421428Y-85262142D02*
X75421428Y-85119285D01*
X75350000Y-84976428D01*
X75278571Y-84905000D01*
X75135714Y-84833571D01*
X74850000Y-84762142D01*
X74492857Y-84762142D01*
X74207142Y-84833571D01*
X74064285Y-84905000D01*
X73992857Y-84976428D01*
X73921428Y-85119285D01*
X73921428Y-85262142D01*
X73992857Y-85405000D01*
X74064285Y-85476428D01*
X74207142Y-85547857D01*
X74492857Y-85619285D01*
X74850000Y-85619285D01*
X75135714Y-85547857D01*
X75278571Y-85476428D01*
X75350000Y-85405000D01*
X75421428Y-85262142D01*
D12*
X55000000Y-82000000D02*
X55000000Y-48000000D01*
X89000000Y-82000000D02*
X55000000Y-82000000D01*
X89000000Y-48000000D02*
X89000000Y-82000000D01*
X55000000Y-48000000D02*
X89000000Y-48000000D01*
D13*
X50210000Y-87700000D02*
X51760000Y-87700000D01*
X50210000Y-89000000D02*
X50210000Y-87700000D01*
X51633000Y-93191000D02*
X51633000Y-99033000D01*
X51633000Y-99033000D02*
X51887000Y-99033000D01*
X51887000Y-99033000D02*
X51887000Y-93191000D01*
X51887000Y-93191000D02*
X51760000Y-93191000D01*
X51760000Y-93191000D02*
X51760000Y-99033000D01*
X71826000Y-90524000D02*
X71826000Y-90143000D01*
X72334000Y-90524000D02*
X72334000Y-90143000D01*
X74366000Y-90524000D02*
X74366000Y-90143000D01*
X74874000Y-90524000D02*
X74874000Y-90143000D01*
X76906000Y-90524000D02*
X76906000Y-90143000D01*
X77414000Y-90524000D02*
X77414000Y-90143000D01*
X79446000Y-90524000D02*
X79446000Y-90143000D01*
X79954000Y-90524000D02*
X79954000Y-90143000D01*
X90114000Y-90524000D02*
X90114000Y-90143000D01*
X89606000Y-90524000D02*
X89606000Y-90143000D01*
X87574000Y-90524000D02*
X87574000Y-90143000D01*
X87066000Y-90524000D02*
X87066000Y-90143000D01*
X85034000Y-90524000D02*
X85034000Y-90143000D01*
X84526000Y-90524000D02*
X84526000Y-90143000D01*
X82494000Y-90524000D02*
X82494000Y-90143000D01*
X81986000Y-90524000D02*
X81986000Y-90143000D01*
X92654000Y-90524000D02*
X92654000Y-90143000D01*
X92146000Y-90524000D02*
X92146000Y-90143000D01*
X51506000Y-90524000D02*
X51506000Y-90143000D01*
X52014000Y-90524000D02*
X52014000Y-90143000D01*
X54046000Y-90524000D02*
X54046000Y-90143000D01*
X54554000Y-90524000D02*
X54554000Y-90143000D01*
X56586000Y-90524000D02*
X56586000Y-90143000D01*
X57094000Y-90524000D02*
X57094000Y-90143000D01*
X59126000Y-90524000D02*
X59126000Y-90143000D01*
X59634000Y-90524000D02*
X59634000Y-90143000D01*
X69794000Y-90524000D02*
X69794000Y-90143000D01*
X69286000Y-90524000D02*
X69286000Y-90143000D01*
X67254000Y-90524000D02*
X67254000Y-90143000D01*
X66746000Y-90524000D02*
X66746000Y-90143000D01*
X64714000Y-90524000D02*
X64714000Y-90143000D01*
X64206000Y-90524000D02*
X64206000Y-90143000D01*
X62174000Y-90524000D02*
X62174000Y-90143000D01*
X61666000Y-90524000D02*
X61666000Y-90143000D01*
X68270000Y-90524000D02*
X68270000Y-93064000D01*
X68270000Y-90524000D02*
X70810000Y-90524000D01*
X70810000Y-90524000D02*
X70810000Y-93064000D01*
X69286000Y-93064000D02*
X69286000Y-99160000D01*
X69286000Y-99160000D02*
X69794000Y-99160000D01*
X69794000Y-99160000D02*
X69794000Y-93064000D01*
X70810000Y-93064000D02*
X68270000Y-93064000D01*
X73350000Y-93064000D02*
X70810000Y-93064000D01*
X72334000Y-99160000D02*
X72334000Y-93064000D01*
X71826000Y-99160000D02*
X72334000Y-99160000D01*
X71826000Y-93064000D02*
X71826000Y-99160000D01*
X73350000Y-90524000D02*
X73350000Y-93064000D01*
X70810000Y-90524000D02*
X73350000Y-90524000D01*
X70810000Y-90524000D02*
X70810000Y-93064000D01*
X75890000Y-90524000D02*
X75890000Y-93064000D01*
X75890000Y-90524000D02*
X78430000Y-90524000D01*
X78430000Y-90524000D02*
X78430000Y-93064000D01*
X76906000Y-93064000D02*
X76906000Y-99160000D01*
X76906000Y-99160000D02*
X77414000Y-99160000D01*
X77414000Y-99160000D02*
X77414000Y-93064000D01*
X78430000Y-93064000D02*
X75890000Y-93064000D01*
X75890000Y-93064000D02*
X73350000Y-93064000D01*
X74874000Y-99160000D02*
X74874000Y-93064000D01*
X74366000Y-99160000D02*
X74874000Y-99160000D01*
X74366000Y-93064000D02*
X74366000Y-99160000D01*
X75890000Y-90524000D02*
X75890000Y-93064000D01*
X73350000Y-90524000D02*
X75890000Y-90524000D01*
X73350000Y-90524000D02*
X73350000Y-93064000D01*
X83510000Y-90524000D02*
X83510000Y-93064000D01*
X83510000Y-90524000D02*
X86050000Y-90524000D01*
X86050000Y-90524000D02*
X86050000Y-93064000D01*
X84526000Y-93064000D02*
X84526000Y-99160000D01*
X84526000Y-99160000D02*
X85034000Y-99160000D01*
X85034000Y-99160000D02*
X85034000Y-93064000D01*
X86050000Y-93064000D02*
X83510000Y-93064000D01*
X88590000Y-93064000D02*
X86050000Y-93064000D01*
X87574000Y-99160000D02*
X87574000Y-93064000D01*
X87066000Y-99160000D02*
X87574000Y-99160000D01*
X87066000Y-93064000D02*
X87066000Y-99160000D01*
X88590000Y-90524000D02*
X88590000Y-93064000D01*
X86050000Y-90524000D02*
X88590000Y-90524000D01*
X86050000Y-90524000D02*
X86050000Y-93064000D01*
X80970000Y-90524000D02*
X80970000Y-93064000D01*
X80970000Y-90524000D02*
X83510000Y-90524000D01*
X83510000Y-90524000D02*
X83510000Y-93064000D01*
X81986000Y-93064000D02*
X81986000Y-99160000D01*
X81986000Y-99160000D02*
X82494000Y-99160000D01*
X82494000Y-99160000D02*
X82494000Y-93064000D01*
X83510000Y-93064000D02*
X80970000Y-93064000D01*
X80970000Y-93064000D02*
X78430000Y-93064000D01*
X79954000Y-99160000D02*
X79954000Y-93064000D01*
X79446000Y-99160000D02*
X79954000Y-99160000D01*
X79446000Y-93064000D02*
X79446000Y-99160000D01*
X80970000Y-90524000D02*
X80970000Y-93064000D01*
X78430000Y-90524000D02*
X80970000Y-90524000D01*
X78430000Y-90524000D02*
X78430000Y-93064000D01*
X91130000Y-90524000D02*
X91130000Y-93064000D01*
X91130000Y-90524000D02*
X93670000Y-90524000D01*
X93670000Y-90524000D02*
X93670000Y-93064000D01*
X92146000Y-93064000D02*
X92146000Y-99160000D01*
X92146000Y-99160000D02*
X92654000Y-99160000D01*
X92654000Y-99160000D02*
X92654000Y-93064000D01*
X93670000Y-93064000D02*
X91130000Y-93064000D01*
X91130000Y-93064000D02*
X88590000Y-93064000D01*
X90114000Y-99160000D02*
X90114000Y-93064000D01*
X89606000Y-99160000D02*
X90114000Y-99160000D01*
X89606000Y-93064000D02*
X89606000Y-99160000D01*
X91130000Y-90524000D02*
X91130000Y-93064000D01*
X88590000Y-90524000D02*
X91130000Y-90524000D01*
X88590000Y-90524000D02*
X88590000Y-93064000D01*
X53030000Y-93064000D02*
X50490000Y-93064000D01*
X52014000Y-99160000D02*
X52014000Y-93064000D01*
X51506000Y-99160000D02*
X52014000Y-99160000D01*
X51506000Y-93064000D02*
X51506000Y-99160000D01*
X53030000Y-90524000D02*
X53030000Y-93064000D01*
X50490000Y-90524000D02*
X53030000Y-90524000D01*
X50490000Y-90524000D02*
X50490000Y-93064000D01*
X55570000Y-90524000D02*
X55570000Y-93064000D01*
X55570000Y-90524000D02*
X58110000Y-90524000D01*
X58110000Y-90524000D02*
X58110000Y-93064000D01*
X56586000Y-93064000D02*
X56586000Y-99160000D01*
X56586000Y-99160000D02*
X57094000Y-99160000D01*
X57094000Y-99160000D02*
X57094000Y-93064000D01*
X58110000Y-93064000D02*
X55570000Y-93064000D01*
X55570000Y-93064000D02*
X53030000Y-93064000D01*
X54554000Y-99160000D02*
X54554000Y-93064000D01*
X54046000Y-99160000D02*
X54554000Y-99160000D01*
X54046000Y-93064000D02*
X54046000Y-99160000D01*
X55570000Y-90524000D02*
X55570000Y-93064000D01*
X53030000Y-90524000D02*
X55570000Y-90524000D01*
X53030000Y-90524000D02*
X53030000Y-93064000D01*
X63190000Y-90524000D02*
X63190000Y-93064000D01*
X63190000Y-90524000D02*
X65730000Y-90524000D01*
X65730000Y-90524000D02*
X65730000Y-93064000D01*
X64206000Y-93064000D02*
X64206000Y-99160000D01*
X64206000Y-99160000D02*
X64714000Y-99160000D01*
X64714000Y-99160000D02*
X64714000Y-93064000D01*
X65730000Y-93064000D02*
X63190000Y-93064000D01*
X68270000Y-93064000D02*
X65730000Y-93064000D01*
X67254000Y-99160000D02*
X67254000Y-93064000D01*
X66746000Y-99160000D02*
X67254000Y-99160000D01*
X66746000Y-93064000D02*
X66746000Y-99160000D01*
X68270000Y-90524000D02*
X68270000Y-93064000D01*
X65730000Y-90524000D02*
X68270000Y-90524000D01*
X65730000Y-90524000D02*
X65730000Y-93064000D01*
X60650000Y-90524000D02*
X60650000Y-93064000D01*
X60650000Y-90524000D02*
X63190000Y-90524000D01*
X63190000Y-90524000D02*
X63190000Y-93064000D01*
X61666000Y-93064000D02*
X61666000Y-99160000D01*
X61666000Y-99160000D02*
X62174000Y-99160000D01*
X62174000Y-99160000D02*
X62174000Y-93064000D01*
X63190000Y-93064000D02*
X60650000Y-93064000D01*
X60650000Y-93064000D02*
X58110000Y-93064000D01*
X59634000Y-99160000D02*
X59634000Y-93064000D01*
X59126000Y-99160000D02*
X59634000Y-99160000D01*
X59126000Y-93064000D02*
X59126000Y-99160000D01*
X60650000Y-90524000D02*
X60650000Y-93064000D01*
X58110000Y-90524000D02*
X60650000Y-90524000D01*
X58110000Y-90524000D02*
X58110000Y-93064000D01*
%LPC*%
D14*
X51760000Y-89000000D03*
D15*
X54300000Y-89000000D03*
X56840000Y-89000000D03*
X59380000Y-89000000D03*
X61920000Y-89000000D03*
X64460000Y-89000000D03*
X67000000Y-89000000D03*
X69540000Y-89000000D03*
X72080000Y-89000000D03*
X74620000Y-89000000D03*
X77160000Y-89000000D03*
X79700000Y-89000000D03*
X82240000Y-89000000D03*
X84780000Y-89000000D03*
X87320000Y-89000000D03*
X89860000Y-89000000D03*
X92400000Y-89000000D03*
D16*
X52250000Y-49250000D03*
X91750000Y-49250000D03*
M02*
