G04 #@! TF.GenerationSoftware,KiCad,Pcbnew,(2017-01-24 revision 0b6147e)-makepkg*
G04 #@! TF.CreationDate,2017-10-03T08:04:23-07:00*
G04 #@! TF.ProjectId,OLED_1.5_128X128_breakout,4F4C45445F312E355F31323858313238,rev?*
G04 #@! TF.FileFunction,Soldermask,Top*
G04 #@! TF.FilePolarity,Negative*
%FSLAX46Y46*%
G04 Gerber Fmt 4.6, Leading zero omitted, Abs format (unit mm)*
G04 Created by KiCad (PCBNEW (2017-01-24 revision 0b6147e)-makepkg) date 10/03/17 08:04:23*
%MOMM*%
%LPD*%
G01*
G04 APERTURE LIST*
%ADD10C,0.100000*%
%ADD11R,1.650000X1.400000*%
%ADD12R,0.700000X1.800000*%
%ADD13R,1.300000X1.500000*%
%ADD14R,1.400000X2.000000*%
%ADD15R,1.620000X1.310000*%
%ADD16R,1.200000X1.700000*%
%ADD17R,2.900000X1.400000*%
%ADD18R,2.127200X2.432000*%
%ADD19O,2.127200X2.432000*%
%ADD20R,1.460000X1.050000*%
%ADD21R,1.700000X1.100000*%
%ADD22C,3.100000*%
G04 APERTURE END LIST*
D10*
D11*
X65010000Y-63140000D03*
X65010000Y-65140000D03*
D12*
X78985000Y-59794000D03*
X78485000Y-59794000D03*
X77985000Y-59794000D03*
X77485000Y-59794000D03*
X76985000Y-59794000D03*
X76485000Y-59794000D03*
X75985000Y-59794000D03*
X75485000Y-59794000D03*
X74985000Y-59794000D03*
X74485000Y-59794000D03*
X73985000Y-59794000D03*
X73485000Y-59794000D03*
X72985000Y-59794000D03*
X72485000Y-59794000D03*
X71985000Y-59794000D03*
X71485000Y-59794000D03*
X70985000Y-59794000D03*
X70485000Y-59794000D03*
X69985000Y-59794000D03*
X69485000Y-59794000D03*
X68985000Y-59794000D03*
X68485000Y-59794000D03*
X67985000Y-59794000D03*
X67485000Y-59794000D03*
X66985000Y-59794000D03*
X66485000Y-59794000D03*
X65985000Y-59794000D03*
X65485000Y-59794000D03*
X64985000Y-59794000D03*
X64485000Y-59794000D03*
D13*
X81685000Y-58294000D03*
X61885000Y-58294000D03*
D14*
X55750000Y-85000000D03*
X58750000Y-85000000D03*
X62000000Y-62500000D03*
X59000000Y-62500000D03*
X59000000Y-66100000D03*
X62000000Y-66100000D03*
X59000000Y-69740000D03*
X62000000Y-69740000D03*
D15*
X54590000Y-72365000D03*
X54590000Y-69095000D03*
D16*
X65000000Y-70075000D03*
X65000000Y-67365000D03*
X67390000Y-67365000D03*
X67390000Y-70075000D03*
D17*
X58790000Y-73710000D03*
X58790000Y-76710000D03*
D18*
X51760000Y-89000000D03*
D19*
X54300000Y-89000000D03*
X56840000Y-89000000D03*
X59380000Y-89000000D03*
X61920000Y-89000000D03*
X64460000Y-89000000D03*
X67000000Y-89000000D03*
X69540000Y-89000000D03*
X72080000Y-89000000D03*
X74620000Y-89000000D03*
X77160000Y-89000000D03*
X79700000Y-89000000D03*
X82240000Y-89000000D03*
X84780000Y-89000000D03*
X87320000Y-89000000D03*
X89860000Y-89000000D03*
X92400000Y-89000000D03*
D20*
X55650000Y-79800000D03*
X55650000Y-80750000D03*
X55650000Y-81700000D03*
X57850000Y-81700000D03*
X57850000Y-79800000D03*
D21*
X67410000Y-63190000D03*
X67410000Y-65090000D03*
X52000000Y-79050000D03*
X52000000Y-80950000D03*
X52000000Y-84700000D03*
X52000000Y-82800000D03*
D11*
X54590000Y-74770000D03*
X54590000Y-76770000D03*
X81030000Y-63930000D03*
X81030000Y-65930000D03*
D21*
X78290000Y-63980000D03*
X78290000Y-65880000D03*
D22*
X52250000Y-49250000D03*
X91750000Y-49250000D03*
M02*
