G04 #@! TF.GenerationSoftware,KiCad,Pcbnew,(2017-01-24 revision 0b6147e)-makepkg*
G04 #@! TF.CreationDate,2017-06-20T06:43:20-07:00*
G04 #@! TF.ProjectId,OLED_1.5_128X128_breakout,4F4C45445F312E355F31323858313238,rev?*
G04 #@! TF.FileFunction,Legend,Top*
G04 #@! TF.FilePolarity,Positive*
%FSLAX46Y46*%
G04 Gerber Fmt 4.6, Leading zero omitted, Abs format (unit mm)*
G04 Created by KiCad (PCBNEW (2017-01-24 revision 0b6147e)-makepkg) date 06/20/17 06:43:20*
%MOMM*%
%LPD*%
G01*
G04 APERTURE LIST*
%ADD10C,0.100000*%
%ADD11C,0.150000*%
%ADD12R,1.400000X2.000000*%
%ADD13R,1.620000X1.310000*%
%ADD14R,1.200000X1.700000*%
%ADD15R,2.900000X1.400000*%
%ADD16R,2.127200X2.432000*%
%ADD17O,2.127200X2.432000*%
%ADD18R,1.460000X1.050000*%
%ADD19R,1.700000X1.100000*%
%ADD20R,1.650000X1.400000*%
%ADD21C,3.100000*%
%ADD22R,0.700000X1.800000*%
%ADD23R,1.300000X1.500000*%
G04 APERTURE END LIST*
D10*
D11*
X58250000Y-83975000D02*
X56250000Y-83975000D01*
X56250000Y-86025000D02*
X58250000Y-86025000D01*
X87250000Y-56225000D02*
X85250000Y-56225000D01*
X85250000Y-58275000D02*
X87250000Y-58275000D01*
X85250000Y-61275000D02*
X87250000Y-61275000D01*
X87250000Y-59225000D02*
X85250000Y-59225000D01*
X59000000Y-59225000D02*
X57000000Y-59225000D01*
X57000000Y-61275000D02*
X59000000Y-61275000D01*
X54590000Y-70412500D02*
X54590000Y-70031500D01*
X54590000Y-71428500D02*
X54590000Y-71047500D01*
X54590000Y-71047500D02*
X54209000Y-70412500D01*
X54209000Y-70412500D02*
X54971000Y-70412500D01*
X54971000Y-70412500D02*
X54590000Y-71047500D01*
X54082000Y-71047500D02*
X55098000Y-71047500D01*
X55490000Y-72730000D02*
X55490000Y-69190000D01*
X53690000Y-72730000D02*
X53690000Y-69190000D01*
X81250000Y-68000000D02*
X81250000Y-67750000D01*
X81250000Y-68500000D02*
X81250000Y-68750000D01*
X81250000Y-68500000D02*
X80900000Y-68000000D01*
X80900000Y-68000000D02*
X81600000Y-68000000D01*
X81600000Y-68000000D02*
X81250000Y-68500000D01*
X80900000Y-68500000D02*
X81600000Y-68500000D01*
X82050000Y-69550000D02*
X82050000Y-67150000D01*
X80450000Y-69550000D02*
X80450000Y-67150000D01*
X78200000Y-69550000D02*
X78200000Y-67150000D01*
X79800000Y-69550000D02*
X79800000Y-67150000D01*
X78650000Y-68500000D02*
X79350000Y-68500000D01*
X79350000Y-68000000D02*
X79000000Y-68500000D01*
X78650000Y-68000000D02*
X79350000Y-68000000D01*
X79000000Y-68500000D02*
X78650000Y-68000000D01*
X79000000Y-68500000D02*
X79000000Y-68750000D01*
X79000000Y-68000000D02*
X79000000Y-67750000D01*
X60265000Y-76210000D02*
X60265000Y-74210000D01*
X57315000Y-74210000D02*
X57315000Y-76210000D01*
X56550000Y-79050000D02*
G75*
G03X56550000Y-79050000I-100000J0D01*
G01*
X57000000Y-79300000D02*
X56500000Y-79300000D01*
X57000000Y-82200000D02*
X57000000Y-79300000D01*
X56500000Y-82200000D02*
X57000000Y-82200000D01*
X56500000Y-79300000D02*
X56500000Y-82200000D01*
X78125000Y-64600000D02*
X78125000Y-63400000D01*
X79875000Y-63400000D02*
X79875000Y-64600000D01*
X82100000Y-64500000D02*
X82100000Y-63500000D01*
X80400000Y-63500000D02*
X80400000Y-64500000D01*
X51125000Y-80600000D02*
X51125000Y-79400000D01*
X52875000Y-79400000D02*
X52875000Y-80600000D01*
X52875000Y-83150000D02*
X52875000Y-84350000D01*
X51125000Y-84350000D02*
X51125000Y-83150000D01*
X55440000Y-76270000D02*
X55440000Y-75270000D01*
X53740000Y-75270000D02*
X53740000Y-76270000D01*
X63600000Y-64500000D02*
X63600000Y-63500000D01*
X61900000Y-63500000D02*
X61900000Y-64500000D01*
X64125000Y-64600000D02*
X64125000Y-63400000D01*
X65875000Y-63400000D02*
X65875000Y-64600000D01*
X79489000Y-59159000D02*
X79489000Y-59159000D01*
X81521000Y-58905000D02*
X81521000Y-59159000D01*
X81521000Y-59159000D02*
X79489000Y-59159000D01*
X79489000Y-59159000D02*
X79489000Y-59159000D01*
X81521000Y-57635000D02*
X81521000Y-56492000D01*
X81521000Y-56492000D02*
X81521000Y-56492000D01*
X82283000Y-56492000D02*
X82283000Y-55603000D01*
X82283000Y-55603000D02*
X82283000Y-55603000D01*
X82283000Y-54841000D02*
X82283000Y-55603000D01*
X82283000Y-55603000D02*
X82283000Y-55603000D01*
X62471000Y-58905000D02*
X62471000Y-59032000D01*
X62471000Y-59032000D02*
X62471000Y-59032000D01*
X64503000Y-59159000D02*
X62471000Y-59159000D01*
X62471000Y-59159000D02*
X62471000Y-59159000D01*
X62471000Y-59159000D02*
X62471000Y-59032000D01*
X62471000Y-59032000D02*
X62471000Y-59032000D01*
X62471000Y-57635000D02*
X62471000Y-56492000D01*
X62471000Y-56492000D02*
X62471000Y-56492000D01*
X62471000Y-56492000D02*
X61709000Y-56492000D01*
X61709000Y-56492000D02*
X61709000Y-56492000D01*
X82283000Y-54841000D02*
X61709000Y-54841000D01*
X61709000Y-54841000D02*
X61709000Y-54841000D01*
X61709000Y-56492000D02*
X61709000Y-54841000D01*
X81521000Y-56492000D02*
X82283000Y-56492000D01*
X57083333Y-83607142D02*
X57035714Y-83654761D01*
X56892857Y-83702380D01*
X56797619Y-83702380D01*
X56654761Y-83654761D01*
X56559523Y-83559523D01*
X56511904Y-83464285D01*
X56464285Y-83273809D01*
X56464285Y-83130952D01*
X56511904Y-82940476D01*
X56559523Y-82845238D01*
X56654761Y-82750000D01*
X56797619Y-82702380D01*
X56892857Y-82702380D01*
X57035714Y-82750000D01*
X57083333Y-82797619D01*
X58035714Y-83702380D02*
X57464285Y-83702380D01*
X57750000Y-83702380D02*
X57750000Y-82702380D01*
X57654761Y-82845238D01*
X57559523Y-82940476D01*
X57464285Y-82988095D01*
X86083333Y-55607142D02*
X86035714Y-55654761D01*
X85892857Y-55702380D01*
X85797619Y-55702380D01*
X85654761Y-55654761D01*
X85559523Y-55559523D01*
X85511904Y-55464285D01*
X85464285Y-55273809D01*
X85464285Y-55130952D01*
X85511904Y-54940476D01*
X85559523Y-54845238D01*
X85654761Y-54750000D01*
X85797619Y-54702380D01*
X85892857Y-54702380D01*
X86035714Y-54750000D01*
X86083333Y-54797619D01*
X86416666Y-54702380D02*
X87035714Y-54702380D01*
X86702380Y-55083333D01*
X86845238Y-55083333D01*
X86940476Y-55130952D01*
X86988095Y-55178571D01*
X87035714Y-55273809D01*
X87035714Y-55511904D01*
X86988095Y-55607142D01*
X86940476Y-55654761D01*
X86845238Y-55702380D01*
X86559523Y-55702380D01*
X86464285Y-55654761D01*
X86416666Y-55607142D01*
X86083333Y-62607142D02*
X86035714Y-62654761D01*
X85892857Y-62702380D01*
X85797619Y-62702380D01*
X85654761Y-62654761D01*
X85559523Y-62559523D01*
X85511904Y-62464285D01*
X85464285Y-62273809D01*
X85464285Y-62130952D01*
X85511904Y-61940476D01*
X85559523Y-61845238D01*
X85654761Y-61750000D01*
X85797619Y-61702380D01*
X85892857Y-61702380D01*
X86035714Y-61750000D01*
X86083333Y-61797619D01*
X86988095Y-61702380D02*
X86511904Y-61702380D01*
X86464285Y-62178571D01*
X86511904Y-62130952D01*
X86607142Y-62083333D01*
X86845238Y-62083333D01*
X86940476Y-62130952D01*
X86988095Y-62178571D01*
X87035714Y-62273809D01*
X87035714Y-62511904D01*
X86988095Y-62607142D01*
X86940476Y-62654761D01*
X86845238Y-62702380D01*
X86607142Y-62702380D01*
X86511904Y-62654761D01*
X86464285Y-62607142D01*
X57833333Y-58857142D02*
X57785714Y-58904761D01*
X57642857Y-58952380D01*
X57547619Y-58952380D01*
X57404761Y-58904761D01*
X57309523Y-58809523D01*
X57261904Y-58714285D01*
X57214285Y-58523809D01*
X57214285Y-58380952D01*
X57261904Y-58190476D01*
X57309523Y-58095238D01*
X57404761Y-58000000D01*
X57547619Y-57952380D01*
X57642857Y-57952380D01*
X57785714Y-58000000D01*
X57833333Y-58047619D01*
X58690476Y-57952380D02*
X58500000Y-57952380D01*
X58404761Y-58000000D01*
X58357142Y-58047619D01*
X58261904Y-58190476D01*
X58214285Y-58380952D01*
X58214285Y-58761904D01*
X58261904Y-58857142D01*
X58309523Y-58904761D01*
X58404761Y-58952380D01*
X58595238Y-58952380D01*
X58690476Y-58904761D01*
X58738095Y-58857142D01*
X58785714Y-58761904D01*
X58785714Y-58523809D01*
X58738095Y-58428571D01*
X58690476Y-58380952D01*
X58595238Y-58333333D01*
X58404761Y-58333333D01*
X58309523Y-58380952D01*
X58261904Y-58428571D01*
X58214285Y-58523809D01*
X53871904Y-68282380D02*
X53871904Y-67282380D01*
X54110000Y-67282380D01*
X54252857Y-67330000D01*
X54348095Y-67425238D01*
X54395714Y-67520476D01*
X54443333Y-67710952D01*
X54443333Y-67853809D01*
X54395714Y-68044285D01*
X54348095Y-68139523D01*
X54252857Y-68234761D01*
X54110000Y-68282380D01*
X53871904Y-68282380D01*
X55395714Y-68282380D02*
X54824285Y-68282380D01*
X55110000Y-68282380D02*
X55110000Y-67282380D01*
X55014761Y-67425238D01*
X54919523Y-67520476D01*
X54824285Y-67568095D01*
X82391904Y-68702380D02*
X82391904Y-67702380D01*
X82630000Y-67702380D01*
X82772857Y-67750000D01*
X82868095Y-67845238D01*
X82915714Y-67940476D01*
X82963333Y-68130952D01*
X82963333Y-68273809D01*
X82915714Y-68464285D01*
X82868095Y-68559523D01*
X82772857Y-68654761D01*
X82630000Y-68702380D01*
X82391904Y-68702380D01*
X83344285Y-67797619D02*
X83391904Y-67750000D01*
X83487142Y-67702380D01*
X83725238Y-67702380D01*
X83820476Y-67750000D01*
X83868095Y-67797619D01*
X83915714Y-67892857D01*
X83915714Y-67988095D01*
X83868095Y-68130952D01*
X83296666Y-68702380D01*
X83915714Y-68702380D01*
X76331904Y-68732380D02*
X76331904Y-67732380D01*
X76570000Y-67732380D01*
X76712857Y-67780000D01*
X76808095Y-67875238D01*
X76855714Y-67970476D01*
X76903333Y-68160952D01*
X76903333Y-68303809D01*
X76855714Y-68494285D01*
X76808095Y-68589523D01*
X76712857Y-68684761D01*
X76570000Y-68732380D01*
X76331904Y-68732380D01*
X77236666Y-67732380D02*
X77855714Y-67732380D01*
X77522380Y-68113333D01*
X77665238Y-68113333D01*
X77760476Y-68160952D01*
X77808095Y-68208571D01*
X77855714Y-68303809D01*
X77855714Y-68541904D01*
X77808095Y-68637142D01*
X77760476Y-68684761D01*
X77665238Y-68732380D01*
X77379523Y-68732380D01*
X77284285Y-68684761D01*
X77236666Y-68637142D01*
X58613333Y-72712380D02*
X58137142Y-72712380D01*
X58137142Y-71712380D01*
X59470476Y-72712380D02*
X58899047Y-72712380D01*
X59184761Y-72712380D02*
X59184761Y-71712380D01*
X59089523Y-71855238D01*
X58994285Y-71950476D01*
X58899047Y-71998095D01*
X55938095Y-77652380D02*
X55938095Y-78461904D01*
X55985714Y-78557142D01*
X56033333Y-78604761D01*
X56128571Y-78652380D01*
X56319047Y-78652380D01*
X56414285Y-78604761D01*
X56461904Y-78557142D01*
X56509523Y-78461904D01*
X56509523Y-77652380D01*
X57509523Y-78652380D02*
X56938095Y-78652380D01*
X57223809Y-78652380D02*
X57223809Y-77652380D01*
X57128571Y-77795238D01*
X57033333Y-77890476D01*
X56938095Y-77938095D01*
X78833333Y-62202380D02*
X78500000Y-61726190D01*
X78261904Y-62202380D02*
X78261904Y-61202380D01*
X78642857Y-61202380D01*
X78738095Y-61250000D01*
X78785714Y-61297619D01*
X78833333Y-61392857D01*
X78833333Y-61535714D01*
X78785714Y-61630952D01*
X78738095Y-61678571D01*
X78642857Y-61726190D01*
X78261904Y-61726190D01*
X79690476Y-61535714D02*
X79690476Y-62202380D01*
X79452380Y-61154761D02*
X79214285Y-61869047D01*
X79833333Y-61869047D01*
X81083333Y-61857142D02*
X81035714Y-61904761D01*
X80892857Y-61952380D01*
X80797619Y-61952380D01*
X80654761Y-61904761D01*
X80559523Y-61809523D01*
X80511904Y-61714285D01*
X80464285Y-61523809D01*
X80464285Y-61380952D01*
X80511904Y-61190476D01*
X80559523Y-61095238D01*
X80654761Y-61000000D01*
X80797619Y-60952380D01*
X80892857Y-60952380D01*
X81035714Y-61000000D01*
X81083333Y-61047619D01*
X81416666Y-60952380D02*
X82083333Y-60952380D01*
X81654761Y-61952380D01*
X51833333Y-78202380D02*
X51500000Y-77726190D01*
X51261904Y-78202380D02*
X51261904Y-77202380D01*
X51642857Y-77202380D01*
X51738095Y-77250000D01*
X51785714Y-77297619D01*
X51833333Y-77392857D01*
X51833333Y-77535714D01*
X51785714Y-77630952D01*
X51738095Y-77678571D01*
X51642857Y-77726190D01*
X51261904Y-77726190D01*
X52785714Y-78202380D02*
X52214285Y-78202380D01*
X52500000Y-78202380D02*
X52500000Y-77202380D01*
X52404761Y-77345238D01*
X52309523Y-77440476D01*
X52214285Y-77488095D01*
X51833333Y-86702380D02*
X51500000Y-86226190D01*
X51261904Y-86702380D02*
X51261904Y-85702380D01*
X51642857Y-85702380D01*
X51738095Y-85750000D01*
X51785714Y-85797619D01*
X51833333Y-85892857D01*
X51833333Y-86035714D01*
X51785714Y-86130952D01*
X51738095Y-86178571D01*
X51642857Y-86226190D01*
X51261904Y-86226190D01*
X52214285Y-85797619D02*
X52261904Y-85750000D01*
X52357142Y-85702380D01*
X52595238Y-85702380D01*
X52690476Y-85750000D01*
X52738095Y-85797619D01*
X52785714Y-85892857D01*
X52785714Y-85988095D01*
X52738095Y-86130952D01*
X52166666Y-86702380D01*
X52785714Y-86702380D01*
X52493333Y-76127142D02*
X52445714Y-76174761D01*
X52302857Y-76222380D01*
X52207619Y-76222380D01*
X52064761Y-76174761D01*
X51969523Y-76079523D01*
X51921904Y-75984285D01*
X51874285Y-75793809D01*
X51874285Y-75650952D01*
X51921904Y-75460476D01*
X51969523Y-75365238D01*
X52064761Y-75270000D01*
X52207619Y-75222380D01*
X52302857Y-75222380D01*
X52445714Y-75270000D01*
X52493333Y-75317619D01*
X52874285Y-75317619D02*
X52921904Y-75270000D01*
X53017142Y-75222380D01*
X53255238Y-75222380D01*
X53350476Y-75270000D01*
X53398095Y-75317619D01*
X53445714Y-75412857D01*
X53445714Y-75508095D01*
X53398095Y-75650952D01*
X52826666Y-76222380D01*
X53445714Y-76222380D01*
X62583333Y-61857142D02*
X62535714Y-61904761D01*
X62392857Y-61952380D01*
X62297619Y-61952380D01*
X62154761Y-61904761D01*
X62059523Y-61809523D01*
X62011904Y-61714285D01*
X61964285Y-61523809D01*
X61964285Y-61380952D01*
X62011904Y-61190476D01*
X62059523Y-61095238D01*
X62154761Y-61000000D01*
X62297619Y-60952380D01*
X62392857Y-60952380D01*
X62535714Y-61000000D01*
X62583333Y-61047619D01*
X63440476Y-61285714D02*
X63440476Y-61952380D01*
X63202380Y-60904761D02*
X62964285Y-61619047D01*
X63583333Y-61619047D01*
X64833333Y-62202380D02*
X64500000Y-61726190D01*
X64261904Y-62202380D02*
X64261904Y-61202380D01*
X64642857Y-61202380D01*
X64738095Y-61250000D01*
X64785714Y-61297619D01*
X64833333Y-61392857D01*
X64833333Y-61535714D01*
X64785714Y-61630952D01*
X64738095Y-61678571D01*
X64642857Y-61726190D01*
X64261904Y-61726190D01*
X65166666Y-61202380D02*
X65785714Y-61202380D01*
X65452380Y-61583333D01*
X65595238Y-61583333D01*
X65690476Y-61630952D01*
X65738095Y-61678571D01*
X65785714Y-61773809D01*
X65785714Y-62011904D01*
X65738095Y-62107142D01*
X65690476Y-62154761D01*
X65595238Y-62202380D01*
X65309523Y-62202380D01*
X65214285Y-62154761D01*
X65166666Y-62107142D01*
X71473095Y-61202380D02*
X71473095Y-62011904D01*
X71520714Y-62107142D01*
X71568333Y-62154761D01*
X71663571Y-62202380D01*
X71854047Y-62202380D01*
X71949285Y-62154761D01*
X71996904Y-62107142D01*
X72044523Y-62011904D01*
X72044523Y-61202380D01*
X72473095Y-61297619D02*
X72520714Y-61250000D01*
X72615952Y-61202380D01*
X72854047Y-61202380D01*
X72949285Y-61250000D01*
X72996904Y-61297619D01*
X73044523Y-61392857D01*
X73044523Y-61488095D01*
X72996904Y-61630952D01*
X72425476Y-62202380D01*
X73044523Y-62202380D01*
%LPC*%
D12*
X55750000Y-85000000D03*
X58750000Y-85000000D03*
X84750000Y-57250000D03*
X87750000Y-57250000D03*
X87750000Y-60250000D03*
X84750000Y-60250000D03*
X56500000Y-60250000D03*
X59500000Y-60250000D03*
D13*
X54590000Y-72365000D03*
X54590000Y-69095000D03*
D14*
X81250000Y-69605000D03*
X81250000Y-66895000D03*
X79000000Y-66895000D03*
X79000000Y-69605000D03*
D15*
X58790000Y-73710000D03*
X58790000Y-76710000D03*
D16*
X51760000Y-89000000D03*
D17*
X54300000Y-89000000D03*
X56840000Y-89000000D03*
X59380000Y-89000000D03*
X61920000Y-89000000D03*
X64460000Y-89000000D03*
X67000000Y-89000000D03*
X69540000Y-89000000D03*
X72080000Y-89000000D03*
X74620000Y-89000000D03*
X77160000Y-89000000D03*
X79700000Y-89000000D03*
X82240000Y-89000000D03*
X84780000Y-89000000D03*
X87320000Y-89000000D03*
X89860000Y-89000000D03*
X92400000Y-89000000D03*
D18*
X55650000Y-79800000D03*
X55650000Y-80750000D03*
X55650000Y-81700000D03*
X57850000Y-81700000D03*
X57850000Y-79800000D03*
D19*
X79000000Y-63050000D03*
X79000000Y-64950000D03*
D20*
X81250000Y-63000000D03*
X81250000Y-65000000D03*
D19*
X52000000Y-79050000D03*
X52000000Y-80950000D03*
X52000000Y-84700000D03*
X52000000Y-82800000D03*
D20*
X54590000Y-74770000D03*
X54590000Y-76770000D03*
X62750000Y-63000000D03*
X62750000Y-65000000D03*
D19*
X65000000Y-63050000D03*
X65000000Y-64950000D03*
D21*
X52250000Y-49250000D03*
X91750000Y-49250000D03*
D22*
X79235000Y-59794000D03*
X78735000Y-59794000D03*
X78235000Y-59794000D03*
X77735000Y-59794000D03*
X77235000Y-59794000D03*
X76735000Y-59794000D03*
X76235000Y-59794000D03*
X75735000Y-59794000D03*
X75235000Y-59794000D03*
X74735000Y-59794000D03*
X74235000Y-59794000D03*
X73735000Y-59794000D03*
X73235000Y-59794000D03*
X72735000Y-59794000D03*
X72235000Y-59794000D03*
X71735000Y-59794000D03*
X71235000Y-59794000D03*
X70735000Y-59794000D03*
X70235000Y-59794000D03*
X69735000Y-59794000D03*
X69235000Y-59794000D03*
X68735000Y-59794000D03*
X68235000Y-59794000D03*
X67735000Y-59794000D03*
X67235000Y-59794000D03*
X66735000Y-59794000D03*
X66235000Y-59794000D03*
X65735000Y-59794000D03*
X65235000Y-59794000D03*
X64735000Y-59794000D03*
D23*
X81935000Y-58294000D03*
X62135000Y-58294000D03*
M02*
