G04 #@! TF.GenerationSoftware,KiCad,Pcbnew,(2017-01-24 revision 0b6147e)-makepkg*
G04 #@! TF.CreationDate,2017-10-03T08:04:23-07:00*
G04 #@! TF.ProjectId,OLED_1.5_128X128_breakout,4F4C45445F312E355F31323858313238,rev?*
G04 #@! TF.FileFunction,Copper,L1,Top,Signal*
G04 #@! TF.FilePolarity,Positive*
%FSLAX46Y46*%
G04 Gerber Fmt 4.6, Leading zero omitted, Abs format (unit mm)*
G04 Created by KiCad (PCBNEW (2017-01-24 revision 0b6147e)-makepkg) date 10/03/17 08:04:23*
%MOMM*%
%LPD*%
G01*
G04 APERTURE LIST*
%ADD10C,0.100000*%
%ADD11R,1.250000X1.000000*%
%ADD12R,0.300000X1.400000*%
%ADD13R,0.900000X1.100000*%
%ADD14R,1.000000X1.600000*%
%ADD15R,1.220000X0.910000*%
%ADD16R,0.800000X1.300000*%
%ADD17R,2.500000X1.000000*%
%ADD18R,1.727200X2.032000*%
%ADD19O,1.727200X2.032000*%
%ADD20R,1.060000X0.650000*%
%ADD21R,1.300000X0.700000*%
%ADD22C,0.800000*%
%ADD23C,0.635000*%
%ADD24C,0.254000*%
%ADD25C,0.762000*%
%ADD26C,0.381000*%
G04 APERTURE END LIST*
D10*
D11*
X65010000Y-63140000D03*
X65010000Y-65140000D03*
D12*
X78985000Y-59794000D03*
X78485000Y-59794000D03*
X77985000Y-59794000D03*
X77485000Y-59794000D03*
X76985000Y-59794000D03*
X76485000Y-59794000D03*
X75985000Y-59794000D03*
X75485000Y-59794000D03*
X74985000Y-59794000D03*
X74485000Y-59794000D03*
X73985000Y-59794000D03*
X73485000Y-59794000D03*
X72985000Y-59794000D03*
X72485000Y-59794000D03*
X71985000Y-59794000D03*
X71485000Y-59794000D03*
X70985000Y-59794000D03*
X70485000Y-59794000D03*
X69985000Y-59794000D03*
X69485000Y-59794000D03*
X68985000Y-59794000D03*
X68485000Y-59794000D03*
X67985000Y-59794000D03*
X67485000Y-59794000D03*
X66985000Y-59794000D03*
X66485000Y-59794000D03*
X65985000Y-59794000D03*
X65485000Y-59794000D03*
X64985000Y-59794000D03*
X64485000Y-59794000D03*
D13*
X81685000Y-58294000D03*
X61885000Y-58294000D03*
D14*
X55750000Y-85000000D03*
X58750000Y-85000000D03*
X62000000Y-62500000D03*
X59000000Y-62500000D03*
X59000000Y-66100000D03*
X62000000Y-66100000D03*
X59000000Y-69740000D03*
X62000000Y-69740000D03*
D15*
X54590000Y-72365000D03*
X54590000Y-69095000D03*
D16*
X65000000Y-70075000D03*
X65000000Y-67365000D03*
X67390000Y-67365000D03*
X67390000Y-70075000D03*
D17*
X58790000Y-73710000D03*
X58790000Y-76710000D03*
D18*
X51760000Y-89000000D03*
D19*
X54300000Y-89000000D03*
X56840000Y-89000000D03*
X59380000Y-89000000D03*
X61920000Y-89000000D03*
X64460000Y-89000000D03*
X67000000Y-89000000D03*
X69540000Y-89000000D03*
X72080000Y-89000000D03*
X74620000Y-89000000D03*
X77160000Y-89000000D03*
X79700000Y-89000000D03*
X82240000Y-89000000D03*
X84780000Y-89000000D03*
X87320000Y-89000000D03*
X89860000Y-89000000D03*
X92400000Y-89000000D03*
D20*
X55650000Y-79800000D03*
X55650000Y-80750000D03*
X55650000Y-81700000D03*
X57850000Y-81700000D03*
X57850000Y-79800000D03*
D21*
X67410000Y-63190000D03*
X67410000Y-65090000D03*
X52000000Y-79050000D03*
X52000000Y-80950000D03*
X52000000Y-84700000D03*
X52000000Y-82800000D03*
D11*
X54590000Y-74770000D03*
X54590000Y-76770000D03*
X81030000Y-63930000D03*
X81030000Y-65930000D03*
D21*
X78290000Y-63980000D03*
X78290000Y-65880000D03*
D22*
X80000000Y-60100000D03*
X63300000Y-60200000D03*
X78600000Y-61400000D03*
X63650000Y-70910000D03*
X81060000Y-67470000D03*
X78300000Y-67420000D03*
X57560000Y-66050000D03*
X66070000Y-66330000D03*
X57650000Y-69720000D03*
X57280000Y-62450000D03*
X59500000Y-83300000D03*
X54400000Y-80800000D03*
X76350000Y-78260000D03*
X76310000Y-72210000D03*
X76280000Y-63090000D03*
X75960000Y-58220000D03*
X72360000Y-74240000D03*
X71000000Y-58190000D03*
D23*
X62000000Y-69740000D02*
X62000000Y-69320000D01*
X62000000Y-69320000D02*
X63830000Y-67490000D01*
X63830000Y-64320000D02*
X65010000Y-63140000D01*
X63830000Y-67490000D02*
X63830000Y-64320000D01*
D24*
X65985000Y-59794000D02*
X65985000Y-58535000D01*
X65985000Y-58535000D02*
X68050000Y-56470000D01*
X68050000Y-56470000D02*
X75430000Y-56470000D01*
X77485000Y-58525000D02*
X77485000Y-59794000D01*
X75430000Y-56470000D02*
X77485000Y-58525000D01*
X65985000Y-61705000D02*
X65010000Y-62680000D01*
X65010000Y-62680000D02*
X65010000Y-63140000D01*
X65985000Y-59794000D02*
X65985000Y-61705000D01*
D25*
X59790000Y-73710000D02*
X62000000Y-71500000D01*
X62000000Y-71500000D02*
X62000000Y-69740000D01*
X58790000Y-73710000D02*
X59790000Y-73710000D01*
X61230000Y-74330000D02*
X60610000Y-73710000D01*
X60610000Y-73710000D02*
X58790000Y-73710000D01*
X61230000Y-78330000D02*
X61230000Y-74330000D01*
X59760000Y-79800000D02*
X61230000Y-78330000D01*
X57850000Y-79800000D02*
X59760000Y-79800000D01*
X57850000Y-81700000D02*
X57850000Y-79800000D01*
X55750000Y-84500000D02*
X57850000Y-82400000D01*
X57850000Y-82400000D02*
X57850000Y-81700000D01*
X55750000Y-85000000D02*
X55750000Y-84500000D01*
X54300000Y-85450000D02*
X54750000Y-85000000D01*
X54750000Y-85000000D02*
X55750000Y-85000000D01*
X54300000Y-89000000D02*
X54300000Y-85450000D01*
D24*
X80000000Y-60100000D02*
X79291000Y-60100000D01*
X79291000Y-60100000D02*
X78985000Y-59794000D01*
X63300000Y-60200000D02*
X64079000Y-60200000D01*
X64079000Y-60200000D02*
X64485000Y-59794000D01*
X77985000Y-59794000D02*
X77985000Y-60785000D01*
X77985000Y-60785000D02*
X78600000Y-61400000D01*
X65000000Y-70075000D02*
X64485000Y-70075000D01*
X64485000Y-70075000D02*
X63650000Y-70910000D01*
X81030000Y-65930000D02*
X81030000Y-67440000D01*
X81030000Y-67440000D02*
X81060000Y-67470000D01*
X78290000Y-65880000D02*
X78290000Y-67410000D01*
X78290000Y-67410000D02*
X78300000Y-67420000D01*
X59000000Y-66100000D02*
X57610000Y-66100000D01*
X57610000Y-66100000D02*
X57560000Y-66050000D01*
X65010000Y-65140000D02*
X65010000Y-65270000D01*
X65010000Y-65270000D02*
X66070000Y-66330000D01*
D25*
X59000000Y-69740000D02*
X57670000Y-69740000D01*
X57670000Y-69740000D02*
X57650000Y-69720000D01*
X59000000Y-62500000D02*
X57330000Y-62500000D01*
X57330000Y-62500000D02*
X57280000Y-62450000D01*
X51760000Y-89000000D02*
X51760000Y-84940000D01*
X51760000Y-84940000D02*
X52000000Y-84700000D01*
X58750000Y-85000000D02*
X58750000Y-84050000D01*
X58750000Y-84050000D02*
X59500000Y-83300000D01*
D26*
X55650000Y-80750000D02*
X54450000Y-80750000D01*
X54450000Y-80750000D02*
X54400000Y-80800000D01*
D24*
X64985000Y-60615000D02*
X63100000Y-62500000D01*
X63100000Y-62500000D02*
X62000000Y-62500000D01*
X64985000Y-59794000D02*
X64985000Y-60615000D01*
D25*
X54700000Y-60400000D02*
X59900000Y-60400000D01*
X59900000Y-60400000D02*
X62000000Y-62500000D01*
X52000000Y-63100000D02*
X54700000Y-60400000D01*
X52000000Y-71180000D02*
X52000000Y-63100000D01*
X52000000Y-79050000D02*
X52000000Y-71180000D01*
X54590000Y-72365000D02*
X53185000Y-72365000D01*
X53185000Y-72365000D02*
X52000000Y-71180000D01*
X54590000Y-74770000D02*
X54590000Y-72365000D01*
D26*
X54590000Y-79170000D02*
X52810000Y-80950000D01*
X52810000Y-80950000D02*
X52000000Y-80950000D01*
X54590000Y-76770000D02*
X54590000Y-79170000D01*
X52750000Y-81700000D02*
X52750000Y-82050000D01*
X52750000Y-82050000D02*
X52000000Y-82800000D01*
X55650000Y-81700000D02*
X52750000Y-81700000D01*
X52750000Y-81700000D02*
X52000000Y-80950000D01*
D24*
X76985000Y-59794000D02*
X76985000Y-60815000D01*
X76985000Y-60815000D02*
X78370000Y-62200000D01*
X78370000Y-62200000D02*
X80720000Y-62200000D01*
X80720000Y-62200000D02*
X81030000Y-62510000D01*
X81030000Y-62510000D02*
X81030000Y-63930000D01*
X65485000Y-59794000D02*
X65485000Y-60915000D01*
X65485000Y-60915000D02*
X63120000Y-63280000D01*
X63120000Y-63280000D02*
X63120000Y-65520000D01*
X63120000Y-65520000D02*
X62540000Y-66100000D01*
X62540000Y-66100000D02*
X62000000Y-66100000D01*
D25*
X55650000Y-78770000D02*
X57710000Y-76710000D01*
X57710000Y-76710000D02*
X58790000Y-76710000D01*
X55650000Y-79800000D02*
X55650000Y-78770000D01*
X56340000Y-69590000D02*
X55845000Y-69095000D01*
X55845000Y-69095000D02*
X54590000Y-69095000D01*
X56340000Y-75000000D02*
X56340000Y-69590000D01*
X58050000Y-76710000D02*
X56340000Y-75000000D01*
X58790000Y-76710000D02*
X58050000Y-76710000D01*
D24*
X65000000Y-67365000D02*
X65000000Y-67685000D01*
X65000000Y-67685000D02*
X67390000Y-70075000D01*
X67410000Y-65090000D02*
X67410000Y-67345000D01*
X67410000Y-67345000D02*
X67390000Y-67365000D01*
X91950000Y-89000000D02*
X74485000Y-71535000D01*
X74485000Y-71535000D02*
X74485000Y-59794000D01*
X92400000Y-89000000D02*
X91950000Y-89000000D01*
X73985000Y-71805000D02*
X89860000Y-87680000D01*
X89860000Y-87680000D02*
X89860000Y-89000000D01*
X73985000Y-59794000D02*
X73985000Y-71805000D01*
X87320000Y-85800000D02*
X73485000Y-71965000D01*
X73485000Y-71965000D02*
X73485000Y-59794000D01*
X87320000Y-89000000D02*
X87320000Y-85800000D01*
X87320000Y-89000000D02*
X87320000Y-88720000D01*
X72985000Y-72155000D02*
X84780000Y-83950000D01*
X84780000Y-83950000D02*
X84780000Y-89000000D01*
X72985000Y-59794000D02*
X72985000Y-72155000D01*
X82240000Y-82070000D02*
X72485000Y-72315000D01*
X72485000Y-72315000D02*
X72485000Y-59794000D01*
X82240000Y-89000000D02*
X82240000Y-82070000D01*
X71985000Y-72555000D02*
X79700000Y-80270000D01*
X79700000Y-80270000D02*
X79700000Y-89000000D01*
X71985000Y-59794000D02*
X71985000Y-72555000D01*
X71485000Y-59794000D02*
X71485000Y-58925000D01*
X77160000Y-79070000D02*
X77160000Y-89000000D01*
X76350000Y-78260000D02*
X77160000Y-79070000D01*
X76310000Y-63120000D02*
X76310000Y-72210000D01*
X76280000Y-63090000D02*
X76310000Y-63120000D01*
X72190000Y-58220000D02*
X75960000Y-58220000D01*
X71485000Y-58925000D02*
X72190000Y-58220000D01*
X70985000Y-59794000D02*
X70985000Y-58205000D01*
X74620000Y-76500000D02*
X74620000Y-89000000D01*
X72360000Y-74240000D02*
X74620000Y-76500000D01*
X70985000Y-58205000D02*
X71000000Y-58190000D01*
X70485000Y-59794000D02*
X70485000Y-60765000D01*
X70485000Y-60765000D02*
X71520000Y-61800000D01*
X71520000Y-61800000D02*
X71520000Y-88440000D01*
X71520000Y-88440000D02*
X72080000Y-89000000D01*
X72235000Y-88845000D02*
X72080000Y-89000000D01*
X71060000Y-72580000D02*
X69540000Y-74100000D01*
X69540000Y-74100000D02*
X69540000Y-89000000D01*
X71060000Y-62010000D02*
X71060000Y-72580000D01*
X69985000Y-60935000D02*
X71060000Y-62010000D01*
X69985000Y-59794000D02*
X69985000Y-60935000D01*
X70590000Y-72350000D02*
X67000000Y-75940000D01*
X67000000Y-75940000D02*
X67000000Y-89000000D01*
X70590000Y-62190000D02*
X70590000Y-72350000D01*
X69485000Y-61085000D02*
X70590000Y-62190000D01*
X69485000Y-59794000D02*
X69485000Y-61085000D01*
X68985000Y-59794000D02*
X68985000Y-61235000D01*
X68985000Y-61235000D02*
X70130000Y-62380000D01*
X70130000Y-62380000D02*
X70130000Y-72140000D01*
X70130000Y-72140000D02*
X64460000Y-77810000D01*
X64460000Y-77810000D02*
X64460000Y-89000000D01*
X68485000Y-59794000D02*
X68485000Y-61385000D01*
X63050000Y-84510000D02*
X61920000Y-85640000D01*
X68485000Y-61385000D02*
X69670000Y-62570000D01*
X69670000Y-62570000D02*
X69670000Y-71950000D01*
X69670000Y-71950000D02*
X63050000Y-78570000D01*
X63050000Y-78570000D02*
X63050000Y-84510000D01*
X61920000Y-85640000D02*
X61920000Y-89000000D01*
X59380000Y-89000000D02*
X59380000Y-87530000D01*
X59380000Y-87530000D02*
X62580000Y-84330000D01*
X62580000Y-84330000D02*
X62580000Y-78370000D01*
X69210000Y-71740000D02*
X69210000Y-62760000D01*
X62580000Y-78370000D02*
X69210000Y-71740000D01*
X69210000Y-62760000D02*
X67985000Y-61535000D01*
X67985000Y-61535000D02*
X67985000Y-59794000D01*
X67485000Y-59794000D02*
X67485000Y-61685000D01*
X62100000Y-84150000D02*
X59760000Y-86490000D01*
X67485000Y-61685000D02*
X68740000Y-62940000D01*
X59760000Y-86490000D02*
X57630000Y-86490000D01*
X68740000Y-62940000D02*
X68740000Y-71550000D01*
X68740000Y-71550000D02*
X62100000Y-78190000D01*
X62100000Y-78190000D02*
X62100000Y-84150000D01*
X57630000Y-86490000D02*
X56840000Y-87280000D01*
X56840000Y-87280000D02*
X56840000Y-89000000D01*
X74985000Y-59794000D02*
X74985000Y-60885000D01*
X74985000Y-60885000D02*
X76380000Y-62280000D01*
X76380000Y-62280000D02*
X77640000Y-62280000D01*
X77640000Y-62280000D02*
X78290000Y-62930000D01*
X78290000Y-62930000D02*
X78290000Y-63980000D01*
X67410000Y-62670000D02*
X66485000Y-61745000D01*
X66485000Y-61745000D02*
X66485000Y-59794000D01*
X67410000Y-63190000D02*
X67410000Y-62670000D01*
M02*
