G04 #@! TF.GenerationSoftware,KiCad,Pcbnew,(2017-01-24 revision 0b6147e)-makepkg*
G04 #@! TF.CreationDate,2017-10-03T07:54:18-07:00*
G04 #@! TF.ProjectId,OLED_1.5_128X128_breakout,4F4C45445F312E355F31323858313238,rev?*
G04 #@! TF.FileFunction,Copper,L2,Bot,Signal*
G04 #@! TF.FilePolarity,Positive*
%FSLAX46Y46*%
G04 Gerber Fmt 4.6, Leading zero omitted, Abs format (unit mm)*
G04 Created by KiCad (PCBNEW (2017-01-24 revision 0b6147e)-makepkg) date 10/03/17 07:54:18*
%MOMM*%
%LPD*%
G01*
G04 APERTURE LIST*
%ADD10C,0.100000*%
%ADD11R,1.727200X2.032000*%
%ADD12O,1.727200X2.032000*%
%ADD13C,0.800000*%
%ADD14C,0.254000*%
G04 APERTURE END LIST*
D10*
D11*
X51760000Y-89000000D03*
D12*
X54300000Y-89000000D03*
X56840000Y-89000000D03*
X59380000Y-89000000D03*
X61920000Y-89000000D03*
X64460000Y-89000000D03*
X67000000Y-89000000D03*
X69540000Y-89000000D03*
X72080000Y-89000000D03*
X74620000Y-89000000D03*
X77160000Y-89000000D03*
X79700000Y-89000000D03*
X82240000Y-89000000D03*
X84780000Y-89000000D03*
X87320000Y-89000000D03*
X89860000Y-89000000D03*
X92400000Y-89000000D03*
D13*
X63650000Y-70910000D03*
X79070000Y-58170000D03*
X78010000Y-57930000D03*
X81060000Y-67470000D03*
X78300000Y-67420000D03*
X63590000Y-61360000D03*
X57560000Y-66050000D03*
X66070000Y-66330000D03*
X57650000Y-69720000D03*
X57280000Y-62450000D03*
X59500000Y-83300000D03*
X54400000Y-80800000D03*
X76350000Y-78260000D03*
X76310000Y-72210000D03*
X76280000Y-63090000D03*
X75960000Y-58220000D03*
X72360000Y-74240000D03*
X71000000Y-58190000D03*
D14*
X81060000Y-67470000D02*
X81080000Y-67470000D01*
X66070000Y-66330000D02*
X66080000Y-66320000D01*
X76350000Y-72250000D02*
X76350000Y-78260000D01*
X76310000Y-72210000D02*
X76350000Y-72250000D01*
X76280000Y-58540000D02*
X76280000Y-63090000D01*
X75960000Y-58220000D02*
X76280000Y-58540000D01*
X72360000Y-59550000D02*
X72360000Y-74240000D01*
X71000000Y-58190000D02*
X72360000Y-59550000D01*
G36*
X93544000Y-88335173D02*
X93280065Y-87940166D01*
X92876288Y-87670371D01*
X92400000Y-87575631D01*
X91923712Y-87670371D01*
X91519935Y-87940166D01*
X91250140Y-88343943D01*
X91155400Y-88820231D01*
X91155400Y-89179769D01*
X91250140Y-89656057D01*
X91519935Y-90059834D01*
X91923712Y-90329629D01*
X92400000Y-90424369D01*
X92876288Y-90329629D01*
X93280065Y-90059834D01*
X93544000Y-89664827D01*
X93544000Y-90544000D01*
X52993626Y-90544000D01*
X53161927Y-90375698D01*
X53258600Y-90142309D01*
X53258600Y-89818379D01*
X53419935Y-90059834D01*
X53823712Y-90329629D01*
X54300000Y-90424369D01*
X54776288Y-90329629D01*
X55180065Y-90059834D01*
X55449860Y-89656057D01*
X55544600Y-89179769D01*
X55544600Y-88820231D01*
X55595400Y-88820231D01*
X55595400Y-89179769D01*
X55690140Y-89656057D01*
X55959935Y-90059834D01*
X56363712Y-90329629D01*
X56840000Y-90424369D01*
X57316288Y-90329629D01*
X57720065Y-90059834D01*
X57989860Y-89656057D01*
X58084600Y-89179769D01*
X58084600Y-88820231D01*
X58135400Y-88820231D01*
X58135400Y-89179769D01*
X58230140Y-89656057D01*
X58499935Y-90059834D01*
X58903712Y-90329629D01*
X59380000Y-90424369D01*
X59856288Y-90329629D01*
X60260065Y-90059834D01*
X60529860Y-89656057D01*
X60624600Y-89179769D01*
X60624600Y-88820231D01*
X60675400Y-88820231D01*
X60675400Y-89179769D01*
X60770140Y-89656057D01*
X61039935Y-90059834D01*
X61443712Y-90329629D01*
X61920000Y-90424369D01*
X62396288Y-90329629D01*
X62800065Y-90059834D01*
X63069860Y-89656057D01*
X63164600Y-89179769D01*
X63164600Y-88820231D01*
X63215400Y-88820231D01*
X63215400Y-89179769D01*
X63310140Y-89656057D01*
X63579935Y-90059834D01*
X63983712Y-90329629D01*
X64460000Y-90424369D01*
X64936288Y-90329629D01*
X65340065Y-90059834D01*
X65609860Y-89656057D01*
X65704600Y-89179769D01*
X65704600Y-88820231D01*
X65755400Y-88820231D01*
X65755400Y-89179769D01*
X65850140Y-89656057D01*
X66119935Y-90059834D01*
X66523712Y-90329629D01*
X67000000Y-90424369D01*
X67476288Y-90329629D01*
X67880065Y-90059834D01*
X68149860Y-89656057D01*
X68244600Y-89179769D01*
X68244600Y-88820231D01*
X68295400Y-88820231D01*
X68295400Y-89179769D01*
X68390140Y-89656057D01*
X68659935Y-90059834D01*
X69063712Y-90329629D01*
X69540000Y-90424369D01*
X70016288Y-90329629D01*
X70420065Y-90059834D01*
X70689860Y-89656057D01*
X70784600Y-89179769D01*
X70784600Y-88820231D01*
X70835400Y-88820231D01*
X70835400Y-89179769D01*
X70930140Y-89656057D01*
X71199935Y-90059834D01*
X71603712Y-90329629D01*
X72080000Y-90424369D01*
X72556288Y-90329629D01*
X72960065Y-90059834D01*
X73229860Y-89656057D01*
X73324600Y-89179769D01*
X73324600Y-88820231D01*
X73375400Y-88820231D01*
X73375400Y-89179769D01*
X73470140Y-89656057D01*
X73739935Y-90059834D01*
X74143712Y-90329629D01*
X74620000Y-90424369D01*
X75096288Y-90329629D01*
X75500065Y-90059834D01*
X75769860Y-89656057D01*
X75864600Y-89179769D01*
X75864600Y-88820231D01*
X75915400Y-88820231D01*
X75915400Y-89179769D01*
X76010140Y-89656057D01*
X76279935Y-90059834D01*
X76683712Y-90329629D01*
X77160000Y-90424369D01*
X77636288Y-90329629D01*
X78040065Y-90059834D01*
X78309860Y-89656057D01*
X78404600Y-89179769D01*
X78404600Y-88820231D01*
X78455400Y-88820231D01*
X78455400Y-89179769D01*
X78550140Y-89656057D01*
X78819935Y-90059834D01*
X79223712Y-90329629D01*
X79700000Y-90424369D01*
X80176288Y-90329629D01*
X80580065Y-90059834D01*
X80849860Y-89656057D01*
X80944600Y-89179769D01*
X80944600Y-88820231D01*
X80995400Y-88820231D01*
X80995400Y-89179769D01*
X81090140Y-89656057D01*
X81359935Y-90059834D01*
X81763712Y-90329629D01*
X82240000Y-90424369D01*
X82716288Y-90329629D01*
X83120065Y-90059834D01*
X83389860Y-89656057D01*
X83484600Y-89179769D01*
X83484600Y-88820231D01*
X83535400Y-88820231D01*
X83535400Y-89179769D01*
X83630140Y-89656057D01*
X83899935Y-90059834D01*
X84303712Y-90329629D01*
X84780000Y-90424369D01*
X85256288Y-90329629D01*
X85660065Y-90059834D01*
X85929860Y-89656057D01*
X86024600Y-89179769D01*
X86024600Y-88820231D01*
X86075400Y-88820231D01*
X86075400Y-89179769D01*
X86170140Y-89656057D01*
X86439935Y-90059834D01*
X86843712Y-90329629D01*
X87320000Y-90424369D01*
X87796288Y-90329629D01*
X88200065Y-90059834D01*
X88469860Y-89656057D01*
X88564600Y-89179769D01*
X88564600Y-88820231D01*
X88615400Y-88820231D01*
X88615400Y-89179769D01*
X88710140Y-89656057D01*
X88979935Y-90059834D01*
X89383712Y-90329629D01*
X89860000Y-90424369D01*
X90336288Y-90329629D01*
X90740065Y-90059834D01*
X91009860Y-89656057D01*
X91104600Y-89179769D01*
X91104600Y-88820231D01*
X91009860Y-88343943D01*
X90740065Y-87940166D01*
X90336288Y-87670371D01*
X89860000Y-87575631D01*
X89383712Y-87670371D01*
X88979935Y-87940166D01*
X88710140Y-88343943D01*
X88615400Y-88820231D01*
X88564600Y-88820231D01*
X88469860Y-88343943D01*
X88200065Y-87940166D01*
X87796288Y-87670371D01*
X87320000Y-87575631D01*
X86843712Y-87670371D01*
X86439935Y-87940166D01*
X86170140Y-88343943D01*
X86075400Y-88820231D01*
X86024600Y-88820231D01*
X85929860Y-88343943D01*
X85660065Y-87940166D01*
X85256288Y-87670371D01*
X84780000Y-87575631D01*
X84303712Y-87670371D01*
X83899935Y-87940166D01*
X83630140Y-88343943D01*
X83535400Y-88820231D01*
X83484600Y-88820231D01*
X83389860Y-88343943D01*
X83120065Y-87940166D01*
X82716288Y-87670371D01*
X82240000Y-87575631D01*
X81763712Y-87670371D01*
X81359935Y-87940166D01*
X81090140Y-88343943D01*
X80995400Y-88820231D01*
X80944600Y-88820231D01*
X80849860Y-88343943D01*
X80580065Y-87940166D01*
X80176288Y-87670371D01*
X79700000Y-87575631D01*
X79223712Y-87670371D01*
X78819935Y-87940166D01*
X78550140Y-88343943D01*
X78455400Y-88820231D01*
X78404600Y-88820231D01*
X78309860Y-88343943D01*
X78040065Y-87940166D01*
X77636288Y-87670371D01*
X77160000Y-87575631D01*
X76683712Y-87670371D01*
X76279935Y-87940166D01*
X76010140Y-88343943D01*
X75915400Y-88820231D01*
X75864600Y-88820231D01*
X75769860Y-88343943D01*
X75500065Y-87940166D01*
X75096288Y-87670371D01*
X74620000Y-87575631D01*
X74143712Y-87670371D01*
X73739935Y-87940166D01*
X73470140Y-88343943D01*
X73375400Y-88820231D01*
X73324600Y-88820231D01*
X73229860Y-88343943D01*
X72960065Y-87940166D01*
X72556288Y-87670371D01*
X72080000Y-87575631D01*
X71603712Y-87670371D01*
X71199935Y-87940166D01*
X70930140Y-88343943D01*
X70835400Y-88820231D01*
X70784600Y-88820231D01*
X70689860Y-88343943D01*
X70420065Y-87940166D01*
X70016288Y-87670371D01*
X69540000Y-87575631D01*
X69063712Y-87670371D01*
X68659935Y-87940166D01*
X68390140Y-88343943D01*
X68295400Y-88820231D01*
X68244600Y-88820231D01*
X68149860Y-88343943D01*
X67880065Y-87940166D01*
X67476288Y-87670371D01*
X67000000Y-87575631D01*
X66523712Y-87670371D01*
X66119935Y-87940166D01*
X65850140Y-88343943D01*
X65755400Y-88820231D01*
X65704600Y-88820231D01*
X65609860Y-88343943D01*
X65340065Y-87940166D01*
X64936288Y-87670371D01*
X64460000Y-87575631D01*
X63983712Y-87670371D01*
X63579935Y-87940166D01*
X63310140Y-88343943D01*
X63215400Y-88820231D01*
X63164600Y-88820231D01*
X63069860Y-88343943D01*
X62800065Y-87940166D01*
X62396288Y-87670371D01*
X61920000Y-87575631D01*
X61443712Y-87670371D01*
X61039935Y-87940166D01*
X60770140Y-88343943D01*
X60675400Y-88820231D01*
X60624600Y-88820231D01*
X60529860Y-88343943D01*
X60260065Y-87940166D01*
X59856288Y-87670371D01*
X59380000Y-87575631D01*
X58903712Y-87670371D01*
X58499935Y-87940166D01*
X58230140Y-88343943D01*
X58135400Y-88820231D01*
X58084600Y-88820231D01*
X57989860Y-88343943D01*
X57720065Y-87940166D01*
X57316288Y-87670371D01*
X56840000Y-87575631D01*
X56363712Y-87670371D01*
X55959935Y-87940166D01*
X55690140Y-88343943D01*
X55595400Y-88820231D01*
X55544600Y-88820231D01*
X55449860Y-88343943D01*
X55180065Y-87940166D01*
X54776288Y-87670371D01*
X54300000Y-87575631D01*
X53823712Y-87670371D01*
X53419935Y-87940166D01*
X53258600Y-88181621D01*
X53258600Y-87857691D01*
X53161927Y-87624302D01*
X52983299Y-87445673D01*
X52749910Y-87349000D01*
X52045750Y-87349000D01*
X51887000Y-87507750D01*
X51887000Y-88873000D01*
X51907000Y-88873000D01*
X51907000Y-89127000D01*
X51887000Y-89127000D01*
X51887000Y-89147000D01*
X51633000Y-89147000D01*
X51633000Y-89127000D01*
X51613000Y-89127000D01*
X51613000Y-88873000D01*
X51633000Y-88873000D01*
X51633000Y-87507750D01*
X51474250Y-87349000D01*
X50770090Y-87349000D01*
X50536701Y-87445673D01*
X50456000Y-87526374D01*
X50456000Y-58344669D01*
X70218864Y-58344669D01*
X70337514Y-58631823D01*
X70557021Y-58851714D01*
X70843968Y-58970864D01*
X71062635Y-58971055D01*
X71852000Y-59760421D01*
X71852000Y-73643575D01*
X71698286Y-73797021D01*
X71579136Y-74083968D01*
X71578864Y-74394669D01*
X71697514Y-74681823D01*
X71917021Y-74901714D01*
X72203968Y-75020864D01*
X72514669Y-75021136D01*
X72801823Y-74902486D01*
X73021714Y-74682979D01*
X73140864Y-74396032D01*
X73141136Y-74085331D01*
X73022486Y-73798177D01*
X72868000Y-73643421D01*
X72868000Y-72364669D01*
X75528864Y-72364669D01*
X75647514Y-72651823D01*
X75842000Y-72846649D01*
X75842000Y-77663575D01*
X75688286Y-77817021D01*
X75569136Y-78103968D01*
X75568864Y-78414669D01*
X75687514Y-78701823D01*
X75907021Y-78921714D01*
X76193968Y-79040864D01*
X76504669Y-79041136D01*
X76791823Y-78922486D01*
X77011714Y-78702979D01*
X77130864Y-78416032D01*
X77131136Y-78105331D01*
X77012486Y-77818177D01*
X76858000Y-77663421D01*
X76858000Y-72766494D01*
X76971714Y-72652979D01*
X77090864Y-72366032D01*
X77091136Y-72055331D01*
X76972486Y-71768177D01*
X76752979Y-71548286D01*
X76466032Y-71429136D01*
X76155331Y-71428864D01*
X75868177Y-71547514D01*
X75648286Y-71767021D01*
X75529136Y-72053968D01*
X75528864Y-72364669D01*
X72868000Y-72364669D01*
X72868000Y-59550000D01*
X72829331Y-59355597D01*
X72792790Y-59300910D01*
X72719210Y-59190789D01*
X71903090Y-58374669D01*
X75178864Y-58374669D01*
X75297514Y-58661823D01*
X75517021Y-58881714D01*
X75772000Y-58987590D01*
X75772000Y-62493575D01*
X75618286Y-62647021D01*
X75499136Y-62933968D01*
X75498864Y-63244669D01*
X75617514Y-63531823D01*
X75837021Y-63751714D01*
X76123968Y-63870864D01*
X76434669Y-63871136D01*
X76721823Y-63752486D01*
X76941714Y-63532979D01*
X77060864Y-63246032D01*
X77061136Y-62935331D01*
X76942486Y-62648177D01*
X76788000Y-62493421D01*
X76788000Y-58540000D01*
X76749331Y-58345597D01*
X76749331Y-58345596D01*
X76740902Y-58332981D01*
X76741136Y-58065331D01*
X76622486Y-57778177D01*
X76402979Y-57558286D01*
X76116032Y-57439136D01*
X75805331Y-57438864D01*
X75518177Y-57557514D01*
X75298286Y-57777021D01*
X75179136Y-58063968D01*
X75178864Y-58374669D01*
X71903090Y-58374669D01*
X71780946Y-58252526D01*
X71781136Y-58035331D01*
X71662486Y-57748177D01*
X71442979Y-57528286D01*
X71156032Y-57409136D01*
X70845331Y-57408864D01*
X70558177Y-57527514D01*
X70338286Y-57747021D01*
X70219136Y-58033968D01*
X70218864Y-58344669D01*
X50456000Y-58344669D01*
X50456000Y-49592807D01*
X50518700Y-49592807D01*
X50781674Y-50229252D01*
X51268187Y-50716614D01*
X51904172Y-50980699D01*
X52592807Y-50981300D01*
X53229252Y-50718326D01*
X53716614Y-50231813D01*
X53980699Y-49595828D01*
X53980701Y-49592807D01*
X90018700Y-49592807D01*
X90281674Y-50229252D01*
X90768187Y-50716614D01*
X91404172Y-50980699D01*
X92092807Y-50981300D01*
X92729252Y-50718326D01*
X93216614Y-50231813D01*
X93480699Y-49595828D01*
X93481300Y-48907193D01*
X93218326Y-48270748D01*
X92731813Y-47783386D01*
X92095828Y-47519301D01*
X91407193Y-47518700D01*
X90770748Y-47781674D01*
X90283386Y-48268187D01*
X90019301Y-48904172D01*
X90018700Y-49592807D01*
X53980701Y-49592807D01*
X53981300Y-48907193D01*
X53718326Y-48270748D01*
X53231813Y-47783386D01*
X52595828Y-47519301D01*
X51907193Y-47518700D01*
X51270748Y-47781674D01*
X50783386Y-48268187D01*
X50519301Y-48904172D01*
X50518700Y-49592807D01*
X50456000Y-49592807D01*
X50456000Y-47456000D01*
X93544000Y-47456000D01*
X93544000Y-88335173D01*
X93544000Y-88335173D01*
G37*
X93544000Y-88335173D02*
X93280065Y-87940166D01*
X92876288Y-87670371D01*
X92400000Y-87575631D01*
X91923712Y-87670371D01*
X91519935Y-87940166D01*
X91250140Y-88343943D01*
X91155400Y-88820231D01*
X91155400Y-89179769D01*
X91250140Y-89656057D01*
X91519935Y-90059834D01*
X91923712Y-90329629D01*
X92400000Y-90424369D01*
X92876288Y-90329629D01*
X93280065Y-90059834D01*
X93544000Y-89664827D01*
X93544000Y-90544000D01*
X52993626Y-90544000D01*
X53161927Y-90375698D01*
X53258600Y-90142309D01*
X53258600Y-89818379D01*
X53419935Y-90059834D01*
X53823712Y-90329629D01*
X54300000Y-90424369D01*
X54776288Y-90329629D01*
X55180065Y-90059834D01*
X55449860Y-89656057D01*
X55544600Y-89179769D01*
X55544600Y-88820231D01*
X55595400Y-88820231D01*
X55595400Y-89179769D01*
X55690140Y-89656057D01*
X55959935Y-90059834D01*
X56363712Y-90329629D01*
X56840000Y-90424369D01*
X57316288Y-90329629D01*
X57720065Y-90059834D01*
X57989860Y-89656057D01*
X58084600Y-89179769D01*
X58084600Y-88820231D01*
X58135400Y-88820231D01*
X58135400Y-89179769D01*
X58230140Y-89656057D01*
X58499935Y-90059834D01*
X58903712Y-90329629D01*
X59380000Y-90424369D01*
X59856288Y-90329629D01*
X60260065Y-90059834D01*
X60529860Y-89656057D01*
X60624600Y-89179769D01*
X60624600Y-88820231D01*
X60675400Y-88820231D01*
X60675400Y-89179769D01*
X60770140Y-89656057D01*
X61039935Y-90059834D01*
X61443712Y-90329629D01*
X61920000Y-90424369D01*
X62396288Y-90329629D01*
X62800065Y-90059834D01*
X63069860Y-89656057D01*
X63164600Y-89179769D01*
X63164600Y-88820231D01*
X63215400Y-88820231D01*
X63215400Y-89179769D01*
X63310140Y-89656057D01*
X63579935Y-90059834D01*
X63983712Y-90329629D01*
X64460000Y-90424369D01*
X64936288Y-90329629D01*
X65340065Y-90059834D01*
X65609860Y-89656057D01*
X65704600Y-89179769D01*
X65704600Y-88820231D01*
X65755400Y-88820231D01*
X65755400Y-89179769D01*
X65850140Y-89656057D01*
X66119935Y-90059834D01*
X66523712Y-90329629D01*
X67000000Y-90424369D01*
X67476288Y-90329629D01*
X67880065Y-90059834D01*
X68149860Y-89656057D01*
X68244600Y-89179769D01*
X68244600Y-88820231D01*
X68295400Y-88820231D01*
X68295400Y-89179769D01*
X68390140Y-89656057D01*
X68659935Y-90059834D01*
X69063712Y-90329629D01*
X69540000Y-90424369D01*
X70016288Y-90329629D01*
X70420065Y-90059834D01*
X70689860Y-89656057D01*
X70784600Y-89179769D01*
X70784600Y-88820231D01*
X70835400Y-88820231D01*
X70835400Y-89179769D01*
X70930140Y-89656057D01*
X71199935Y-90059834D01*
X71603712Y-90329629D01*
X72080000Y-90424369D01*
X72556288Y-90329629D01*
X72960065Y-90059834D01*
X73229860Y-89656057D01*
X73324600Y-89179769D01*
X73324600Y-88820231D01*
X73375400Y-88820231D01*
X73375400Y-89179769D01*
X73470140Y-89656057D01*
X73739935Y-90059834D01*
X74143712Y-90329629D01*
X74620000Y-90424369D01*
X75096288Y-90329629D01*
X75500065Y-90059834D01*
X75769860Y-89656057D01*
X75864600Y-89179769D01*
X75864600Y-88820231D01*
X75915400Y-88820231D01*
X75915400Y-89179769D01*
X76010140Y-89656057D01*
X76279935Y-90059834D01*
X76683712Y-90329629D01*
X77160000Y-90424369D01*
X77636288Y-90329629D01*
X78040065Y-90059834D01*
X78309860Y-89656057D01*
X78404600Y-89179769D01*
X78404600Y-88820231D01*
X78455400Y-88820231D01*
X78455400Y-89179769D01*
X78550140Y-89656057D01*
X78819935Y-90059834D01*
X79223712Y-90329629D01*
X79700000Y-90424369D01*
X80176288Y-90329629D01*
X80580065Y-90059834D01*
X80849860Y-89656057D01*
X80944600Y-89179769D01*
X80944600Y-88820231D01*
X80995400Y-88820231D01*
X80995400Y-89179769D01*
X81090140Y-89656057D01*
X81359935Y-90059834D01*
X81763712Y-90329629D01*
X82240000Y-90424369D01*
X82716288Y-90329629D01*
X83120065Y-90059834D01*
X83389860Y-89656057D01*
X83484600Y-89179769D01*
X83484600Y-88820231D01*
X83535400Y-88820231D01*
X83535400Y-89179769D01*
X83630140Y-89656057D01*
X83899935Y-90059834D01*
X84303712Y-90329629D01*
X84780000Y-90424369D01*
X85256288Y-90329629D01*
X85660065Y-90059834D01*
X85929860Y-89656057D01*
X86024600Y-89179769D01*
X86024600Y-88820231D01*
X86075400Y-88820231D01*
X86075400Y-89179769D01*
X86170140Y-89656057D01*
X86439935Y-90059834D01*
X86843712Y-90329629D01*
X87320000Y-90424369D01*
X87796288Y-90329629D01*
X88200065Y-90059834D01*
X88469860Y-89656057D01*
X88564600Y-89179769D01*
X88564600Y-88820231D01*
X88615400Y-88820231D01*
X88615400Y-89179769D01*
X88710140Y-89656057D01*
X88979935Y-90059834D01*
X89383712Y-90329629D01*
X89860000Y-90424369D01*
X90336288Y-90329629D01*
X90740065Y-90059834D01*
X91009860Y-89656057D01*
X91104600Y-89179769D01*
X91104600Y-88820231D01*
X91009860Y-88343943D01*
X90740065Y-87940166D01*
X90336288Y-87670371D01*
X89860000Y-87575631D01*
X89383712Y-87670371D01*
X88979935Y-87940166D01*
X88710140Y-88343943D01*
X88615400Y-88820231D01*
X88564600Y-88820231D01*
X88469860Y-88343943D01*
X88200065Y-87940166D01*
X87796288Y-87670371D01*
X87320000Y-87575631D01*
X86843712Y-87670371D01*
X86439935Y-87940166D01*
X86170140Y-88343943D01*
X86075400Y-88820231D01*
X86024600Y-88820231D01*
X85929860Y-88343943D01*
X85660065Y-87940166D01*
X85256288Y-87670371D01*
X84780000Y-87575631D01*
X84303712Y-87670371D01*
X83899935Y-87940166D01*
X83630140Y-88343943D01*
X83535400Y-88820231D01*
X83484600Y-88820231D01*
X83389860Y-88343943D01*
X83120065Y-87940166D01*
X82716288Y-87670371D01*
X82240000Y-87575631D01*
X81763712Y-87670371D01*
X81359935Y-87940166D01*
X81090140Y-88343943D01*
X80995400Y-88820231D01*
X80944600Y-88820231D01*
X80849860Y-88343943D01*
X80580065Y-87940166D01*
X80176288Y-87670371D01*
X79700000Y-87575631D01*
X79223712Y-87670371D01*
X78819935Y-87940166D01*
X78550140Y-88343943D01*
X78455400Y-88820231D01*
X78404600Y-88820231D01*
X78309860Y-88343943D01*
X78040065Y-87940166D01*
X77636288Y-87670371D01*
X77160000Y-87575631D01*
X76683712Y-87670371D01*
X76279935Y-87940166D01*
X76010140Y-88343943D01*
X75915400Y-88820231D01*
X75864600Y-88820231D01*
X75769860Y-88343943D01*
X75500065Y-87940166D01*
X75096288Y-87670371D01*
X74620000Y-87575631D01*
X74143712Y-87670371D01*
X73739935Y-87940166D01*
X73470140Y-88343943D01*
X73375400Y-88820231D01*
X73324600Y-88820231D01*
X73229860Y-88343943D01*
X72960065Y-87940166D01*
X72556288Y-87670371D01*
X72080000Y-87575631D01*
X71603712Y-87670371D01*
X71199935Y-87940166D01*
X70930140Y-88343943D01*
X70835400Y-88820231D01*
X70784600Y-88820231D01*
X70689860Y-88343943D01*
X70420065Y-87940166D01*
X70016288Y-87670371D01*
X69540000Y-87575631D01*
X69063712Y-87670371D01*
X68659935Y-87940166D01*
X68390140Y-88343943D01*
X68295400Y-88820231D01*
X68244600Y-88820231D01*
X68149860Y-88343943D01*
X67880065Y-87940166D01*
X67476288Y-87670371D01*
X67000000Y-87575631D01*
X66523712Y-87670371D01*
X66119935Y-87940166D01*
X65850140Y-88343943D01*
X65755400Y-88820231D01*
X65704600Y-88820231D01*
X65609860Y-88343943D01*
X65340065Y-87940166D01*
X64936288Y-87670371D01*
X64460000Y-87575631D01*
X63983712Y-87670371D01*
X63579935Y-87940166D01*
X63310140Y-88343943D01*
X63215400Y-88820231D01*
X63164600Y-88820231D01*
X63069860Y-88343943D01*
X62800065Y-87940166D01*
X62396288Y-87670371D01*
X61920000Y-87575631D01*
X61443712Y-87670371D01*
X61039935Y-87940166D01*
X60770140Y-88343943D01*
X60675400Y-88820231D01*
X60624600Y-88820231D01*
X60529860Y-88343943D01*
X60260065Y-87940166D01*
X59856288Y-87670371D01*
X59380000Y-87575631D01*
X58903712Y-87670371D01*
X58499935Y-87940166D01*
X58230140Y-88343943D01*
X58135400Y-88820231D01*
X58084600Y-88820231D01*
X57989860Y-88343943D01*
X57720065Y-87940166D01*
X57316288Y-87670371D01*
X56840000Y-87575631D01*
X56363712Y-87670371D01*
X55959935Y-87940166D01*
X55690140Y-88343943D01*
X55595400Y-88820231D01*
X55544600Y-88820231D01*
X55449860Y-88343943D01*
X55180065Y-87940166D01*
X54776288Y-87670371D01*
X54300000Y-87575631D01*
X53823712Y-87670371D01*
X53419935Y-87940166D01*
X53258600Y-88181621D01*
X53258600Y-87857691D01*
X53161927Y-87624302D01*
X52983299Y-87445673D01*
X52749910Y-87349000D01*
X52045750Y-87349000D01*
X51887000Y-87507750D01*
X51887000Y-88873000D01*
X51907000Y-88873000D01*
X51907000Y-89127000D01*
X51887000Y-89127000D01*
X51887000Y-89147000D01*
X51633000Y-89147000D01*
X51633000Y-89127000D01*
X51613000Y-89127000D01*
X51613000Y-88873000D01*
X51633000Y-88873000D01*
X51633000Y-87507750D01*
X51474250Y-87349000D01*
X50770090Y-87349000D01*
X50536701Y-87445673D01*
X50456000Y-87526374D01*
X50456000Y-58344669D01*
X70218864Y-58344669D01*
X70337514Y-58631823D01*
X70557021Y-58851714D01*
X70843968Y-58970864D01*
X71062635Y-58971055D01*
X71852000Y-59760421D01*
X71852000Y-73643575D01*
X71698286Y-73797021D01*
X71579136Y-74083968D01*
X71578864Y-74394669D01*
X71697514Y-74681823D01*
X71917021Y-74901714D01*
X72203968Y-75020864D01*
X72514669Y-75021136D01*
X72801823Y-74902486D01*
X73021714Y-74682979D01*
X73140864Y-74396032D01*
X73141136Y-74085331D01*
X73022486Y-73798177D01*
X72868000Y-73643421D01*
X72868000Y-72364669D01*
X75528864Y-72364669D01*
X75647514Y-72651823D01*
X75842000Y-72846649D01*
X75842000Y-77663575D01*
X75688286Y-77817021D01*
X75569136Y-78103968D01*
X75568864Y-78414669D01*
X75687514Y-78701823D01*
X75907021Y-78921714D01*
X76193968Y-79040864D01*
X76504669Y-79041136D01*
X76791823Y-78922486D01*
X77011714Y-78702979D01*
X77130864Y-78416032D01*
X77131136Y-78105331D01*
X77012486Y-77818177D01*
X76858000Y-77663421D01*
X76858000Y-72766494D01*
X76971714Y-72652979D01*
X77090864Y-72366032D01*
X77091136Y-72055331D01*
X76972486Y-71768177D01*
X76752979Y-71548286D01*
X76466032Y-71429136D01*
X76155331Y-71428864D01*
X75868177Y-71547514D01*
X75648286Y-71767021D01*
X75529136Y-72053968D01*
X75528864Y-72364669D01*
X72868000Y-72364669D01*
X72868000Y-59550000D01*
X72829331Y-59355597D01*
X72792790Y-59300910D01*
X72719210Y-59190789D01*
X71903090Y-58374669D01*
X75178864Y-58374669D01*
X75297514Y-58661823D01*
X75517021Y-58881714D01*
X75772000Y-58987590D01*
X75772000Y-62493575D01*
X75618286Y-62647021D01*
X75499136Y-62933968D01*
X75498864Y-63244669D01*
X75617514Y-63531823D01*
X75837021Y-63751714D01*
X76123968Y-63870864D01*
X76434669Y-63871136D01*
X76721823Y-63752486D01*
X76941714Y-63532979D01*
X77060864Y-63246032D01*
X77061136Y-62935331D01*
X76942486Y-62648177D01*
X76788000Y-62493421D01*
X76788000Y-58540000D01*
X76749331Y-58345597D01*
X76749331Y-58345596D01*
X76740902Y-58332981D01*
X76741136Y-58065331D01*
X76622486Y-57778177D01*
X76402979Y-57558286D01*
X76116032Y-57439136D01*
X75805331Y-57438864D01*
X75518177Y-57557514D01*
X75298286Y-57777021D01*
X75179136Y-58063968D01*
X75178864Y-58374669D01*
X71903090Y-58374669D01*
X71780946Y-58252526D01*
X71781136Y-58035331D01*
X71662486Y-57748177D01*
X71442979Y-57528286D01*
X71156032Y-57409136D01*
X70845331Y-57408864D01*
X70558177Y-57527514D01*
X70338286Y-57747021D01*
X70219136Y-58033968D01*
X70218864Y-58344669D01*
X50456000Y-58344669D01*
X50456000Y-49592807D01*
X50518700Y-49592807D01*
X50781674Y-50229252D01*
X51268187Y-50716614D01*
X51904172Y-50980699D01*
X52592807Y-50981300D01*
X53229252Y-50718326D01*
X53716614Y-50231813D01*
X53980699Y-49595828D01*
X53980701Y-49592807D01*
X90018700Y-49592807D01*
X90281674Y-50229252D01*
X90768187Y-50716614D01*
X91404172Y-50980699D01*
X92092807Y-50981300D01*
X92729252Y-50718326D01*
X93216614Y-50231813D01*
X93480699Y-49595828D01*
X93481300Y-48907193D01*
X93218326Y-48270748D01*
X92731813Y-47783386D01*
X92095828Y-47519301D01*
X91407193Y-47518700D01*
X90770748Y-47781674D01*
X90283386Y-48268187D01*
X90019301Y-48904172D01*
X90018700Y-49592807D01*
X53980701Y-49592807D01*
X53981300Y-48907193D01*
X53718326Y-48270748D01*
X53231813Y-47783386D01*
X52595828Y-47519301D01*
X51907193Y-47518700D01*
X51270748Y-47781674D01*
X50783386Y-48268187D01*
X50519301Y-48904172D01*
X50518700Y-49592807D01*
X50456000Y-49592807D01*
X50456000Y-47456000D01*
X93544000Y-47456000D01*
X93544000Y-88335173D01*
M02*
