M48
INCH,TZ
T1C0.016
T2C0.040
%
G90
G05
T1
X21417Y-31811
X22551Y-24587
X22661Y-26004
X22697Y-27449
X23425Y-32795
X25035Y-24157
X25059Y-27917
X26012Y-26114
X27953Y-22909
X28488Y-29228
X29906Y-22921
X30031Y-24839
X30043Y-28429
X30059Y-30811
X30713Y-22807
X30827Y-26543
X31130Y-22902
X31913Y-26563
T2
X20378Y-35039
X21378Y-35039
X22378Y-35039
X23378Y-35039
X24378Y-35039
X25378Y-35039
X26378Y-35039
X27378Y-35039
X28378Y-35039
X29378Y-35039
X30378Y-35039
X31378Y-35039
X32378Y-35039
X33378Y-35039
X34378Y-35039
X35378Y-35039
X36378Y-35039
T0
M30
