G04 #@! TF.GenerationSoftware,KiCad,Pcbnew,(2017-01-24 revision 0b6147e)-makepkg*
G04 #@! TF.CreationDate,2017-04-22T21:53:28-07:00*
G04 #@! TF.ProjectId,OLED_1.5_128X128_breakout,4F4C45445F312E355F31323858313238,rev?*
G04 #@! TF.FileFunction,Legend,Top*
G04 #@! TF.FilePolarity,Positive*
%FSLAX46Y46*%
G04 Gerber Fmt 4.6, Leading zero omitted, Abs format (unit mm)*
G04 Created by KiCad (PCBNEW (2017-01-24 revision 0b6147e)-makepkg) date 04/22/17 21:53:28*
%MOMM*%
%LPD*%
G01*
G04 APERTURE LIST*
%ADD10C,0.100000*%
%ADD11C,0.300000*%
%ADD12C,0.150000*%
%ADD13R,1.400000X2.000000*%
%ADD14R,1.310000X1.620000*%
%ADD15R,1.200000X1.700000*%
%ADD16R,1.400000X2.900000*%
%ADD17R,2.127200X2.432000*%
%ADD18O,2.127200X2.432000*%
%ADD19R,1.460000X1.050000*%
%ADD20R,1.700000X1.100000*%
%ADD21R,1.650000X1.400000*%
%ADD22R,1.400000X1.650000*%
%ADD23C,3.100000*%
%ADD24R,0.700000X1.800000*%
%ADD25R,1.300000X1.500000*%
G04 APERTURE END LIST*
D10*
D11*
X64257142Y-76185714D02*
X64114285Y-76114285D01*
X63828571Y-76114285D01*
X63685714Y-76185714D01*
X63542857Y-76328571D01*
X63471428Y-76471428D01*
X63471428Y-76757142D01*
X63542857Y-76900000D01*
X63685714Y-77042857D01*
X63828571Y-77114285D01*
X64114285Y-77114285D01*
X64257142Y-77042857D01*
X63971428Y-75614285D02*
X63614285Y-75685714D01*
X63257142Y-75900000D01*
X63042857Y-76257142D01*
X62971428Y-76614285D01*
X63042857Y-76971428D01*
X63257142Y-77328571D01*
X63614285Y-77542857D01*
X63971428Y-77614285D01*
X64328571Y-77542857D01*
X64685714Y-77328571D01*
X64900000Y-76971428D01*
X64971428Y-76614285D01*
X64900000Y-76257142D01*
X64685714Y-75900000D01*
X64328571Y-75685714D01*
X63971428Y-75614285D01*
X66685714Y-75971428D02*
X66757142Y-75900000D01*
X66900000Y-75828571D01*
X67257142Y-75828571D01*
X67400000Y-75900000D01*
X67471428Y-75971428D01*
X67542857Y-76114285D01*
X67542857Y-76257142D01*
X67471428Y-76471428D01*
X66614285Y-77328571D01*
X67542857Y-77328571D01*
X68471428Y-75828571D02*
X68614285Y-75828571D01*
X68757142Y-75900000D01*
X68828571Y-75971428D01*
X68900000Y-76114285D01*
X68971428Y-76400000D01*
X68971428Y-76757142D01*
X68900000Y-77042857D01*
X68828571Y-77185714D01*
X68757142Y-77257142D01*
X68614285Y-77328571D01*
X68471428Y-77328571D01*
X68328571Y-77257142D01*
X68257142Y-77185714D01*
X68185714Y-77042857D01*
X68114285Y-76757142D01*
X68114285Y-76400000D01*
X68185714Y-76114285D01*
X68257142Y-75971428D01*
X68328571Y-75900000D01*
X68471428Y-75828571D01*
X70400000Y-77328571D02*
X69542857Y-77328571D01*
X69971428Y-77328571D02*
X69971428Y-75828571D01*
X69828571Y-76042857D01*
X69685714Y-76185714D01*
X69542857Y-76257142D01*
X70900000Y-75828571D02*
X71900000Y-75828571D01*
X71257142Y-77328571D01*
X74042857Y-75828571D02*
X74042857Y-76900000D01*
X73971428Y-77114285D01*
X73828571Y-77257142D01*
X73614285Y-77328571D01*
X73471428Y-77328571D01*
X74971428Y-77328571D02*
X74828571Y-77257142D01*
X74757142Y-77185714D01*
X74685714Y-77042857D01*
X74685714Y-76614285D01*
X74757142Y-76471428D01*
X74828571Y-76400000D01*
X74971428Y-76328571D01*
X75185714Y-76328571D01*
X75328571Y-76400000D01*
X75400000Y-76471428D01*
X75471428Y-76614285D01*
X75471428Y-77042857D01*
X75400000Y-77185714D01*
X75328571Y-77257142D01*
X75185714Y-77328571D01*
X74971428Y-77328571D01*
X76114285Y-76328571D02*
X76114285Y-77328571D01*
X76114285Y-76471428D02*
X76185714Y-76400000D01*
X76328571Y-76328571D01*
X76542857Y-76328571D01*
X76685714Y-76400000D01*
X76757142Y-76542857D01*
X76757142Y-77328571D01*
X78400000Y-75828571D02*
X79257142Y-75828571D01*
X78828571Y-77328571D02*
X78828571Y-75828571D01*
X79757142Y-77328571D02*
X79757142Y-75828571D01*
X80400000Y-77328571D02*
X80400000Y-76542857D01*
X80328571Y-76400000D01*
X80185714Y-76328571D01*
X79971428Y-76328571D01*
X79828571Y-76400000D01*
X79757142Y-76471428D01*
X81328571Y-77328571D02*
X81185714Y-77257142D01*
X81114285Y-77185714D01*
X81042857Y-77042857D01*
X81042857Y-76614285D01*
X81114285Y-76471428D01*
X81185714Y-76400000D01*
X81328571Y-76328571D01*
X81542857Y-76328571D01*
X81685714Y-76400000D01*
X81757142Y-76471428D01*
X81828571Y-76614285D01*
X81828571Y-77042857D01*
X81757142Y-77185714D01*
X81685714Y-77257142D01*
X81542857Y-77328571D01*
X81328571Y-77328571D01*
X82471428Y-77328571D02*
X82471428Y-76328571D01*
X82471428Y-76471428D02*
X82542857Y-76400000D01*
X82685714Y-76328571D01*
X82900000Y-76328571D01*
X83042857Y-76400000D01*
X83114285Y-76542857D01*
X83114285Y-77328571D01*
X83114285Y-76542857D02*
X83185714Y-76400000D01*
X83328571Y-76328571D01*
X83542857Y-76328571D01*
X83685714Y-76400000D01*
X83757142Y-76542857D01*
X83757142Y-77328571D01*
X85114285Y-77328571D02*
X85114285Y-76542857D01*
X85042857Y-76400000D01*
X84900000Y-76328571D01*
X84614285Y-76328571D01*
X84471428Y-76400000D01*
X85114285Y-77257142D02*
X84971428Y-77328571D01*
X84614285Y-77328571D01*
X84471428Y-77257142D01*
X84400000Y-77114285D01*
X84400000Y-76971428D01*
X84471428Y-76828571D01*
X84614285Y-76757142D01*
X84971428Y-76757142D01*
X85114285Y-76685714D01*
X85757142Y-77257142D02*
X85900000Y-77328571D01*
X86185714Y-77328571D01*
X86328571Y-77257142D01*
X86400000Y-77114285D01*
X86400000Y-77042857D01*
X86328571Y-76900000D01*
X86185714Y-76828571D01*
X85971428Y-76828571D01*
X85828571Y-76757142D01*
X85757142Y-76614285D01*
X85757142Y-76542857D01*
X85828571Y-76400000D01*
X85971428Y-76328571D01*
X86185714Y-76328571D01*
X86328571Y-76400000D01*
X86971428Y-77257142D02*
X87114285Y-77328571D01*
X87400000Y-77328571D01*
X87542857Y-77257142D01*
X87614285Y-77114285D01*
X87614285Y-77042857D01*
X87542857Y-76900000D01*
X87400000Y-76828571D01*
X87185714Y-76828571D01*
X87042857Y-76757142D01*
X86971428Y-76614285D01*
X86971428Y-76542857D01*
X87042857Y-76400000D01*
X87185714Y-76328571D01*
X87400000Y-76328571D01*
X87542857Y-76400000D01*
X88471428Y-77328571D02*
X88328571Y-77257142D01*
X88257142Y-77185714D01*
X88185714Y-77042857D01*
X88185714Y-76614285D01*
X88257142Y-76471428D01*
X88328571Y-76400000D01*
X88471428Y-76328571D01*
X88685714Y-76328571D01*
X88828571Y-76400000D01*
X88900000Y-76471428D01*
X88971428Y-76614285D01*
X88971428Y-77042857D01*
X88900000Y-77185714D01*
X88828571Y-77257142D01*
X88685714Y-77328571D01*
X88471428Y-77328571D01*
X89614285Y-76328571D02*
X89614285Y-77328571D01*
X89614285Y-76471428D02*
X89685714Y-76400000D01*
X89828571Y-76328571D01*
X90042857Y-76328571D01*
X90185714Y-76400000D01*
X90257142Y-76542857D01*
X90257142Y-77328571D01*
D12*
X58250000Y-83975000D02*
X56250000Y-83975000D01*
X56250000Y-86025000D02*
X58250000Y-86025000D01*
X87250000Y-56225000D02*
X85250000Y-56225000D01*
X85250000Y-58275000D02*
X87250000Y-58275000D01*
X85250000Y-61275000D02*
X87250000Y-61275000D01*
X87250000Y-59225000D02*
X85250000Y-59225000D01*
X59000000Y-59225000D02*
X57000000Y-59225000D01*
X57000000Y-61275000D02*
X59000000Y-61275000D01*
X55682500Y-71000000D02*
X55301500Y-71000000D01*
X56698500Y-71000000D02*
X56317500Y-71000000D01*
X56317500Y-71000000D02*
X55682500Y-71381000D01*
X55682500Y-71381000D02*
X55682500Y-70619000D01*
X55682500Y-70619000D02*
X56317500Y-71000000D01*
X56317500Y-71508000D02*
X56317500Y-70492000D01*
X58000000Y-70100000D02*
X54460000Y-70100000D01*
X58000000Y-71900000D02*
X54460000Y-71900000D01*
X81250000Y-68000000D02*
X81250000Y-67750000D01*
X81250000Y-68500000D02*
X81250000Y-68750000D01*
X81250000Y-68500000D02*
X80900000Y-68000000D01*
X80900000Y-68000000D02*
X81600000Y-68000000D01*
X81600000Y-68000000D02*
X81250000Y-68500000D01*
X80900000Y-68500000D02*
X81600000Y-68500000D01*
X82050000Y-69550000D02*
X82050000Y-67150000D01*
X80450000Y-69550000D02*
X80450000Y-67150000D01*
X78200000Y-69550000D02*
X78200000Y-67150000D01*
X79800000Y-69550000D02*
X79800000Y-67150000D01*
X78650000Y-68500000D02*
X79350000Y-68500000D01*
X79350000Y-68000000D02*
X79000000Y-68500000D01*
X78650000Y-68000000D02*
X79350000Y-68000000D01*
X79000000Y-68500000D02*
X78650000Y-68000000D01*
X79000000Y-68500000D02*
X79000000Y-68750000D01*
X79000000Y-68000000D02*
X79000000Y-67750000D01*
X55000000Y-77225000D02*
X57000000Y-77225000D01*
X57000000Y-74275000D02*
X55000000Y-74275000D01*
X56550000Y-79050000D02*
G75*
G03X56550000Y-79050000I-100000J0D01*
G01*
X57000000Y-79300000D02*
X56500000Y-79300000D01*
X57000000Y-82200000D02*
X57000000Y-79300000D01*
X56500000Y-82200000D02*
X57000000Y-82200000D01*
X56500000Y-79300000D02*
X56500000Y-82200000D01*
X78125000Y-64600000D02*
X78125000Y-63400000D01*
X79875000Y-63400000D02*
X79875000Y-64600000D01*
X82100000Y-64500000D02*
X82100000Y-63500000D01*
X80400000Y-63500000D02*
X80400000Y-64500000D01*
X51125000Y-80600000D02*
X51125000Y-79400000D01*
X52875000Y-79400000D02*
X52875000Y-80600000D01*
X52875000Y-83150000D02*
X52875000Y-84350000D01*
X51125000Y-84350000D02*
X51125000Y-83150000D01*
X61500000Y-70150000D02*
X60500000Y-70150000D01*
X60500000Y-71850000D02*
X61500000Y-71850000D01*
X63600000Y-64500000D02*
X63600000Y-63500000D01*
X61900000Y-63500000D02*
X61900000Y-64500000D01*
X64125000Y-64600000D02*
X64125000Y-63400000D01*
X65875000Y-63400000D02*
X65875000Y-64600000D01*
X79489000Y-59159000D02*
X79489000Y-59159000D01*
X81521000Y-58905000D02*
X81521000Y-59159000D01*
X81521000Y-59159000D02*
X79489000Y-59159000D01*
X79489000Y-59159000D02*
X79489000Y-59159000D01*
X81521000Y-57635000D02*
X81521000Y-56492000D01*
X81521000Y-56492000D02*
X81521000Y-56492000D01*
X82283000Y-56492000D02*
X82283000Y-55603000D01*
X82283000Y-55603000D02*
X82283000Y-55603000D01*
X82283000Y-54841000D02*
X82283000Y-55603000D01*
X82283000Y-55603000D02*
X82283000Y-55603000D01*
X62471000Y-58905000D02*
X62471000Y-59032000D01*
X62471000Y-59032000D02*
X62471000Y-59032000D01*
X64503000Y-59159000D02*
X62471000Y-59159000D01*
X62471000Y-59159000D02*
X62471000Y-59159000D01*
X62471000Y-59159000D02*
X62471000Y-59032000D01*
X62471000Y-59032000D02*
X62471000Y-59032000D01*
X62471000Y-57635000D02*
X62471000Y-56492000D01*
X62471000Y-56492000D02*
X62471000Y-56492000D01*
X62471000Y-56492000D02*
X61709000Y-56492000D01*
X61709000Y-56492000D02*
X61709000Y-56492000D01*
X82283000Y-54841000D02*
X61709000Y-54841000D01*
X61709000Y-54841000D02*
X61709000Y-54841000D01*
X61709000Y-56492000D02*
X61709000Y-54841000D01*
X81521000Y-56492000D02*
X82283000Y-56492000D01*
X57083333Y-83607142D02*
X57035714Y-83654761D01*
X56892857Y-83702380D01*
X56797619Y-83702380D01*
X56654761Y-83654761D01*
X56559523Y-83559523D01*
X56511904Y-83464285D01*
X56464285Y-83273809D01*
X56464285Y-83130952D01*
X56511904Y-82940476D01*
X56559523Y-82845238D01*
X56654761Y-82750000D01*
X56797619Y-82702380D01*
X56892857Y-82702380D01*
X57035714Y-82750000D01*
X57083333Y-82797619D01*
X58035714Y-83702380D02*
X57464285Y-83702380D01*
X57750000Y-83702380D02*
X57750000Y-82702380D01*
X57654761Y-82845238D01*
X57559523Y-82940476D01*
X57464285Y-82988095D01*
X86083333Y-55607142D02*
X86035714Y-55654761D01*
X85892857Y-55702380D01*
X85797619Y-55702380D01*
X85654761Y-55654761D01*
X85559523Y-55559523D01*
X85511904Y-55464285D01*
X85464285Y-55273809D01*
X85464285Y-55130952D01*
X85511904Y-54940476D01*
X85559523Y-54845238D01*
X85654761Y-54750000D01*
X85797619Y-54702380D01*
X85892857Y-54702380D01*
X86035714Y-54750000D01*
X86083333Y-54797619D01*
X86416666Y-54702380D02*
X87035714Y-54702380D01*
X86702380Y-55083333D01*
X86845238Y-55083333D01*
X86940476Y-55130952D01*
X86988095Y-55178571D01*
X87035714Y-55273809D01*
X87035714Y-55511904D01*
X86988095Y-55607142D01*
X86940476Y-55654761D01*
X86845238Y-55702380D01*
X86559523Y-55702380D01*
X86464285Y-55654761D01*
X86416666Y-55607142D01*
X86083333Y-62607142D02*
X86035714Y-62654761D01*
X85892857Y-62702380D01*
X85797619Y-62702380D01*
X85654761Y-62654761D01*
X85559523Y-62559523D01*
X85511904Y-62464285D01*
X85464285Y-62273809D01*
X85464285Y-62130952D01*
X85511904Y-61940476D01*
X85559523Y-61845238D01*
X85654761Y-61750000D01*
X85797619Y-61702380D01*
X85892857Y-61702380D01*
X86035714Y-61750000D01*
X86083333Y-61797619D01*
X86988095Y-61702380D02*
X86511904Y-61702380D01*
X86464285Y-62178571D01*
X86511904Y-62130952D01*
X86607142Y-62083333D01*
X86845238Y-62083333D01*
X86940476Y-62130952D01*
X86988095Y-62178571D01*
X87035714Y-62273809D01*
X87035714Y-62511904D01*
X86988095Y-62607142D01*
X86940476Y-62654761D01*
X86845238Y-62702380D01*
X86607142Y-62702380D01*
X86511904Y-62654761D01*
X86464285Y-62607142D01*
X57833333Y-58857142D02*
X57785714Y-58904761D01*
X57642857Y-58952380D01*
X57547619Y-58952380D01*
X57404761Y-58904761D01*
X57309523Y-58809523D01*
X57261904Y-58714285D01*
X57214285Y-58523809D01*
X57214285Y-58380952D01*
X57261904Y-58190476D01*
X57309523Y-58095238D01*
X57404761Y-58000000D01*
X57547619Y-57952380D01*
X57642857Y-57952380D01*
X57785714Y-58000000D01*
X57833333Y-58047619D01*
X58690476Y-57952380D02*
X58500000Y-57952380D01*
X58404761Y-58000000D01*
X58357142Y-58047619D01*
X58261904Y-58190476D01*
X58214285Y-58380952D01*
X58214285Y-58761904D01*
X58261904Y-58857142D01*
X58309523Y-58904761D01*
X58404761Y-58952380D01*
X58595238Y-58952380D01*
X58690476Y-58904761D01*
X58738095Y-58857142D01*
X58785714Y-58761904D01*
X58785714Y-58523809D01*
X58738095Y-58428571D01*
X58690476Y-58380952D01*
X58595238Y-58333333D01*
X58404761Y-58333333D01*
X58309523Y-58380952D01*
X58261904Y-58428571D01*
X58214285Y-58523809D01*
X55261904Y-69702380D02*
X55261904Y-68702380D01*
X55500000Y-68702380D01*
X55642857Y-68750000D01*
X55738095Y-68845238D01*
X55785714Y-68940476D01*
X55833333Y-69130952D01*
X55833333Y-69273809D01*
X55785714Y-69464285D01*
X55738095Y-69559523D01*
X55642857Y-69654761D01*
X55500000Y-69702380D01*
X55261904Y-69702380D01*
X56785714Y-69702380D02*
X56214285Y-69702380D01*
X56500000Y-69702380D02*
X56500000Y-68702380D01*
X56404761Y-68845238D01*
X56309523Y-68940476D01*
X56214285Y-68988095D01*
X83307380Y-68988095D02*
X82307380Y-68988095D01*
X82307380Y-68750000D01*
X82355000Y-68607142D01*
X82450238Y-68511904D01*
X82545476Y-68464285D01*
X82735952Y-68416666D01*
X82878809Y-68416666D01*
X83069285Y-68464285D01*
X83164523Y-68511904D01*
X83259761Y-68607142D01*
X83307380Y-68750000D01*
X83307380Y-68988095D01*
X82402619Y-68035714D02*
X82355000Y-67988095D01*
X82307380Y-67892857D01*
X82307380Y-67654761D01*
X82355000Y-67559523D01*
X82402619Y-67511904D01*
X82497857Y-67464285D01*
X82593095Y-67464285D01*
X82735952Y-67511904D01*
X83307380Y-68083333D01*
X83307380Y-67464285D01*
X77952380Y-68988095D02*
X76952380Y-68988095D01*
X76952380Y-68750000D01*
X77000000Y-68607142D01*
X77095238Y-68511904D01*
X77190476Y-68464285D01*
X77380952Y-68416666D01*
X77523809Y-68416666D01*
X77714285Y-68464285D01*
X77809523Y-68511904D01*
X77904761Y-68607142D01*
X77952380Y-68750000D01*
X77952380Y-68988095D01*
X76952380Y-68083333D02*
X76952380Y-67464285D01*
X77333333Y-67797619D01*
X77333333Y-67654761D01*
X77380952Y-67559523D01*
X77428571Y-67511904D01*
X77523809Y-67464285D01*
X77761904Y-67464285D01*
X77857142Y-67511904D01*
X77904761Y-67559523D01*
X77952380Y-67654761D01*
X77952380Y-67940476D01*
X77904761Y-68035714D01*
X77857142Y-68083333D01*
X55833333Y-73952380D02*
X55357142Y-73952380D01*
X55357142Y-72952380D01*
X56690476Y-73952380D02*
X56119047Y-73952380D01*
X56404761Y-73952380D02*
X56404761Y-72952380D01*
X56309523Y-73095238D01*
X56214285Y-73190476D01*
X56119047Y-73238095D01*
X55938095Y-77652380D02*
X55938095Y-78461904D01*
X55985714Y-78557142D01*
X56033333Y-78604761D01*
X56128571Y-78652380D01*
X56319047Y-78652380D01*
X56414285Y-78604761D01*
X56461904Y-78557142D01*
X56509523Y-78461904D01*
X56509523Y-77652380D01*
X57509523Y-78652380D02*
X56938095Y-78652380D01*
X57223809Y-78652380D02*
X57223809Y-77652380D01*
X57128571Y-77795238D01*
X57033333Y-77890476D01*
X56938095Y-77938095D01*
X78833333Y-62202380D02*
X78500000Y-61726190D01*
X78261904Y-62202380D02*
X78261904Y-61202380D01*
X78642857Y-61202380D01*
X78738095Y-61250000D01*
X78785714Y-61297619D01*
X78833333Y-61392857D01*
X78833333Y-61535714D01*
X78785714Y-61630952D01*
X78738095Y-61678571D01*
X78642857Y-61726190D01*
X78261904Y-61726190D01*
X79690476Y-61535714D02*
X79690476Y-62202380D01*
X79452380Y-61154761D02*
X79214285Y-61869047D01*
X79833333Y-61869047D01*
X81083333Y-61857142D02*
X81035714Y-61904761D01*
X80892857Y-61952380D01*
X80797619Y-61952380D01*
X80654761Y-61904761D01*
X80559523Y-61809523D01*
X80511904Y-61714285D01*
X80464285Y-61523809D01*
X80464285Y-61380952D01*
X80511904Y-61190476D01*
X80559523Y-61095238D01*
X80654761Y-61000000D01*
X80797619Y-60952380D01*
X80892857Y-60952380D01*
X81035714Y-61000000D01*
X81083333Y-61047619D01*
X81416666Y-60952380D02*
X82083333Y-60952380D01*
X81654761Y-61952380D01*
X51833333Y-78202380D02*
X51500000Y-77726190D01*
X51261904Y-78202380D02*
X51261904Y-77202380D01*
X51642857Y-77202380D01*
X51738095Y-77250000D01*
X51785714Y-77297619D01*
X51833333Y-77392857D01*
X51833333Y-77535714D01*
X51785714Y-77630952D01*
X51738095Y-77678571D01*
X51642857Y-77726190D01*
X51261904Y-77726190D01*
X52785714Y-78202380D02*
X52214285Y-78202380D01*
X52500000Y-78202380D02*
X52500000Y-77202380D01*
X52404761Y-77345238D01*
X52309523Y-77440476D01*
X52214285Y-77488095D01*
X51833333Y-86702380D02*
X51500000Y-86226190D01*
X51261904Y-86702380D02*
X51261904Y-85702380D01*
X51642857Y-85702380D01*
X51738095Y-85750000D01*
X51785714Y-85797619D01*
X51833333Y-85892857D01*
X51833333Y-86035714D01*
X51785714Y-86130952D01*
X51738095Y-86178571D01*
X51642857Y-86226190D01*
X51261904Y-86226190D01*
X52214285Y-85797619D02*
X52261904Y-85750000D01*
X52357142Y-85702380D01*
X52595238Y-85702380D01*
X52690476Y-85750000D01*
X52738095Y-85797619D01*
X52785714Y-85892857D01*
X52785714Y-85988095D01*
X52738095Y-86130952D01*
X52166666Y-86702380D01*
X52785714Y-86702380D01*
X60833333Y-69607142D02*
X60785714Y-69654761D01*
X60642857Y-69702380D01*
X60547619Y-69702380D01*
X60404761Y-69654761D01*
X60309523Y-69559523D01*
X60261904Y-69464285D01*
X60214285Y-69273809D01*
X60214285Y-69130952D01*
X60261904Y-68940476D01*
X60309523Y-68845238D01*
X60404761Y-68750000D01*
X60547619Y-68702380D01*
X60642857Y-68702380D01*
X60785714Y-68750000D01*
X60833333Y-68797619D01*
X61214285Y-68797619D02*
X61261904Y-68750000D01*
X61357142Y-68702380D01*
X61595238Y-68702380D01*
X61690476Y-68750000D01*
X61738095Y-68797619D01*
X61785714Y-68892857D01*
X61785714Y-68988095D01*
X61738095Y-69130952D01*
X61166666Y-69702380D01*
X61785714Y-69702380D01*
X62583333Y-61857142D02*
X62535714Y-61904761D01*
X62392857Y-61952380D01*
X62297619Y-61952380D01*
X62154761Y-61904761D01*
X62059523Y-61809523D01*
X62011904Y-61714285D01*
X61964285Y-61523809D01*
X61964285Y-61380952D01*
X62011904Y-61190476D01*
X62059523Y-61095238D01*
X62154761Y-61000000D01*
X62297619Y-60952380D01*
X62392857Y-60952380D01*
X62535714Y-61000000D01*
X62583333Y-61047619D01*
X63440476Y-61285714D02*
X63440476Y-61952380D01*
X63202380Y-60904761D02*
X62964285Y-61619047D01*
X63583333Y-61619047D01*
X64833333Y-62202380D02*
X64500000Y-61726190D01*
X64261904Y-62202380D02*
X64261904Y-61202380D01*
X64642857Y-61202380D01*
X64738095Y-61250000D01*
X64785714Y-61297619D01*
X64833333Y-61392857D01*
X64833333Y-61535714D01*
X64785714Y-61630952D01*
X64738095Y-61678571D01*
X64642857Y-61726190D01*
X64261904Y-61726190D01*
X65166666Y-61202380D02*
X65785714Y-61202380D01*
X65452380Y-61583333D01*
X65595238Y-61583333D01*
X65690476Y-61630952D01*
X65738095Y-61678571D01*
X65785714Y-61773809D01*
X65785714Y-62011904D01*
X65738095Y-62107142D01*
X65690476Y-62154761D01*
X65595238Y-62202380D01*
X65309523Y-62202380D01*
X65214285Y-62154761D01*
X65166666Y-62107142D01*
X71473095Y-61202380D02*
X71473095Y-62011904D01*
X71520714Y-62107142D01*
X71568333Y-62154761D01*
X71663571Y-62202380D01*
X71854047Y-62202380D01*
X71949285Y-62154761D01*
X71996904Y-62107142D01*
X72044523Y-62011904D01*
X72044523Y-61202380D01*
X72473095Y-61297619D02*
X72520714Y-61250000D01*
X72615952Y-61202380D01*
X72854047Y-61202380D01*
X72949285Y-61250000D01*
X72996904Y-61297619D01*
X73044523Y-61392857D01*
X73044523Y-61488095D01*
X72996904Y-61630952D01*
X72425476Y-62202380D01*
X73044523Y-62202380D01*
%LPC*%
D13*
X55750000Y-85000000D03*
X58750000Y-85000000D03*
X84750000Y-57250000D03*
X87750000Y-57250000D03*
X87750000Y-60250000D03*
X84750000Y-60250000D03*
X56500000Y-60250000D03*
X59500000Y-60250000D03*
D14*
X57635000Y-71000000D03*
X54365000Y-71000000D03*
D15*
X81250000Y-69605000D03*
X81250000Y-66895000D03*
X79000000Y-66895000D03*
X79000000Y-69605000D03*
D16*
X57500000Y-75750000D03*
X54500000Y-75750000D03*
D17*
X51760000Y-89000000D03*
D18*
X54300000Y-89000000D03*
X56840000Y-89000000D03*
X59380000Y-89000000D03*
X61920000Y-89000000D03*
X64460000Y-89000000D03*
X67000000Y-89000000D03*
X69540000Y-89000000D03*
X72080000Y-89000000D03*
X74620000Y-89000000D03*
X77160000Y-89000000D03*
X79700000Y-89000000D03*
X82240000Y-89000000D03*
X84780000Y-89000000D03*
X87320000Y-89000000D03*
X89860000Y-89000000D03*
X92400000Y-89000000D03*
D19*
X55650000Y-79800000D03*
X55650000Y-80750000D03*
X55650000Y-81700000D03*
X57850000Y-81700000D03*
X57850000Y-79800000D03*
D20*
X79000000Y-63050000D03*
X79000000Y-64950000D03*
D21*
X81250000Y-63000000D03*
X81250000Y-65000000D03*
D20*
X52000000Y-79050000D03*
X52000000Y-80950000D03*
X52000000Y-84700000D03*
X52000000Y-82800000D03*
D22*
X60000000Y-71000000D03*
X62000000Y-71000000D03*
D21*
X62750000Y-63000000D03*
X62750000Y-65000000D03*
D20*
X65000000Y-63050000D03*
X65000000Y-64950000D03*
D23*
X52250000Y-49250000D03*
X91750000Y-49250000D03*
D24*
X79235000Y-59794000D03*
X78735000Y-59794000D03*
X78235000Y-59794000D03*
X77735000Y-59794000D03*
X77235000Y-59794000D03*
X76735000Y-59794000D03*
X76235000Y-59794000D03*
X75735000Y-59794000D03*
X75235000Y-59794000D03*
X74735000Y-59794000D03*
X74235000Y-59794000D03*
X73735000Y-59794000D03*
X73235000Y-59794000D03*
X72735000Y-59794000D03*
X72235000Y-59794000D03*
X71735000Y-59794000D03*
X71235000Y-59794000D03*
X70735000Y-59794000D03*
X70235000Y-59794000D03*
X69735000Y-59794000D03*
X69235000Y-59794000D03*
X68735000Y-59794000D03*
X68235000Y-59794000D03*
X67735000Y-59794000D03*
X67235000Y-59794000D03*
X66735000Y-59794000D03*
X66235000Y-59794000D03*
X65735000Y-59794000D03*
X65235000Y-59794000D03*
X64735000Y-59794000D03*
D25*
X81935000Y-58294000D03*
X62135000Y-58294000D03*
M02*
