M48
INCH,TZ
T1C0.016
T2C0.040
%
G90
G05
T1
X21417Y-31811
X22244Y-24331
X23425Y-32795
X24685Y-26102
X25177Y-23622
X25591Y-26063
X25787Y-22992
X31358Y-23012
X32008Y-27992
X32559Y-25591
X34567Y-21811
X34567Y-24409
T2
X20378Y-35039
X21378Y-35039
X22378Y-35039
X23378Y-35039
X24378Y-35039
X25378Y-35039
X26378Y-35039
X27378Y-35039
X28378Y-35039
X29378Y-35039
X30378Y-35039
X31378Y-35039
X32378Y-35039
X33378Y-35039
X34378Y-35039
X35378Y-35039
X36378Y-35039
T0
M30
