G04 #@! TF.GenerationSoftware,KiCad,Pcbnew,(2017-01-24 revision 0b6147e)-makepkg*
G04 #@! TF.CreationDate,2017-04-22T21:53:28-07:00*
G04 #@! TF.ProjectId,OLED_1.5_128X128_breakout,4F4C45445F312E355F31323858313238,rev?*
G04 #@! TF.FileFunction,Soldermask,Top*
G04 #@! TF.FilePolarity,Negative*
%FSLAX46Y46*%
G04 Gerber Fmt 4.6, Leading zero omitted, Abs format (unit mm)*
G04 Created by KiCad (PCBNEW (2017-01-24 revision 0b6147e)-makepkg) date 04/22/17 21:53:28*
%MOMM*%
%LPD*%
G01*
G04 APERTURE LIST*
%ADD10C,0.100000*%
%ADD11R,1.400000X2.000000*%
%ADD12R,1.310000X1.620000*%
%ADD13R,1.200000X1.700000*%
%ADD14R,1.400000X2.900000*%
%ADD15R,2.127200X2.432000*%
%ADD16O,2.127200X2.432000*%
%ADD17R,1.460000X1.050000*%
%ADD18R,1.700000X1.100000*%
%ADD19R,1.650000X1.400000*%
%ADD20R,1.400000X1.650000*%
%ADD21C,3.100000*%
%ADD22R,0.700000X1.800000*%
%ADD23R,1.300000X1.500000*%
G04 APERTURE END LIST*
D10*
D11*
X55750000Y-85000000D03*
X58750000Y-85000000D03*
X84750000Y-57250000D03*
X87750000Y-57250000D03*
X87750000Y-60250000D03*
X84750000Y-60250000D03*
X56500000Y-60250000D03*
X59500000Y-60250000D03*
D12*
X57635000Y-71000000D03*
X54365000Y-71000000D03*
D13*
X81250000Y-69605000D03*
X81250000Y-66895000D03*
X79000000Y-66895000D03*
X79000000Y-69605000D03*
D14*
X57500000Y-75750000D03*
X54500000Y-75750000D03*
D15*
X51760000Y-89000000D03*
D16*
X54300000Y-89000000D03*
X56840000Y-89000000D03*
X59380000Y-89000000D03*
X61920000Y-89000000D03*
X64460000Y-89000000D03*
X67000000Y-89000000D03*
X69540000Y-89000000D03*
X72080000Y-89000000D03*
X74620000Y-89000000D03*
X77160000Y-89000000D03*
X79700000Y-89000000D03*
X82240000Y-89000000D03*
X84780000Y-89000000D03*
X87320000Y-89000000D03*
X89860000Y-89000000D03*
X92400000Y-89000000D03*
D17*
X55650000Y-79800000D03*
X55650000Y-80750000D03*
X55650000Y-81700000D03*
X57850000Y-81700000D03*
X57850000Y-79800000D03*
D18*
X79000000Y-63050000D03*
X79000000Y-64950000D03*
D19*
X81250000Y-63000000D03*
X81250000Y-65000000D03*
D18*
X52000000Y-79050000D03*
X52000000Y-80950000D03*
X52000000Y-84700000D03*
X52000000Y-82800000D03*
D20*
X60000000Y-71000000D03*
X62000000Y-71000000D03*
D19*
X62750000Y-63000000D03*
X62750000Y-65000000D03*
D18*
X65000000Y-63050000D03*
X65000000Y-64950000D03*
D21*
X52250000Y-49250000D03*
X91750000Y-49250000D03*
D22*
X79235000Y-59794000D03*
X78735000Y-59794000D03*
X78235000Y-59794000D03*
X77735000Y-59794000D03*
X77235000Y-59794000D03*
X76735000Y-59794000D03*
X76235000Y-59794000D03*
X75735000Y-59794000D03*
X75235000Y-59794000D03*
X74735000Y-59794000D03*
X74235000Y-59794000D03*
X73735000Y-59794000D03*
X73235000Y-59794000D03*
X72735000Y-59794000D03*
X72235000Y-59794000D03*
X71735000Y-59794000D03*
X71235000Y-59794000D03*
X70735000Y-59794000D03*
X70235000Y-59794000D03*
X69735000Y-59794000D03*
X69235000Y-59794000D03*
X68735000Y-59794000D03*
X68235000Y-59794000D03*
X67735000Y-59794000D03*
X67235000Y-59794000D03*
X66735000Y-59794000D03*
X66235000Y-59794000D03*
X65735000Y-59794000D03*
X65235000Y-59794000D03*
X64735000Y-59794000D03*
D23*
X81935000Y-58294000D03*
X62135000Y-58294000D03*
M02*
